<svg width="290" height="290" viewBox="0 0 290 290" fill="none" xmlns="http://www.w3.org/2000/svg">
<g clip-path="url(#clip0_47_946)">
<g opacity="0.85">
<path d="M166.579 173.614C171.332 148.926 183.616 125.729 201.378 107.901C202.843 110.716 204.22 113.575 205.524 116.464C207.289 114.08 208.381 111.199 208.63 108.244C208.791 106.38 208.681 104.325 209.86 102.869C210.71 101.824 212.058 101.334 213.34 100.895C224.283 97.1214 235.226 93.3479 246.162 89.5745C243.715 98.2183 239.95 106.482 235.028 114C229.871 121.89 223.492 128.911 216.914 135.668C199.789 153.292 180.525 169.819 157.298 177.885" fill="#C8E4FF"/>
<path d="M174.548 160.875C202.221 146.966 233.886 141.087 264.715 144.129C252.989 152.824 239.255 158.791 224.891 161.439C223.939 161.614 222.906 161.768 222.042 161.336C219.544 160.093 220.833 155.735 218.636 154.016C216.453 155.5 215.684 158.411 213.684 160.137C211.692 161.863 208.85 162.111 206.22 162.243C197.643 162.682 189.051 162.755 180.474 162.47" fill="#C8E4FF"/>
<path d="M201.335 237.237C219.075 217.697 236.926 198.04 257.794 181.871C263.199 177.68 268.957 173.658 275.571 171.896C278.303 171.165 282.09 171.399 282.874 174.112C283.203 175.252 282.837 176.481 282.376 177.578C281.233 180.276 279.497 182.682 277.71 185.015C259.925 208.124 234.985 225.668 207.202 234.597" fill="#C8E4FF"/>
<path d="M217.163 231.24C229.476 224.995 242.829 220.805 256.504 218.889C258.321 218.633 260.203 218.428 261.961 218.94C263.719 219.452 265.338 220.878 265.528 222.699C265.711 224.49 264.51 226.136 263.155 227.335C260.101 230.034 256.101 231.394 252.139 232.388C240.361 235.35 227.916 235.635 216.021 233.215" fill="#C8E4FF"/>
<path d="M89.2223 237.237C71.4819 217.697 53.6315 198.04 32.7634 181.871C27.3577 177.68 21.6005 173.658 14.9863 171.896C12.2541 171.165 8.46726 171.399 7.68352 174.112C7.35391 175.252 7.72014 176.481 8.1816 177.578C9.32426 180.276 11.0602 182.682 12.8474 185.015C30.6319 208.124 55.5726 225.668 83.3552 234.597" fill="#C8E4FF"/>
<path d="M73.4011 231.24C61.0883 224.995 47.7353 220.805 34.0601 218.889C32.2435 218.633 30.3611 218.428 28.6031 218.94C26.8452 219.452 25.2264 220.878 25.036 222.699C24.8529 224.49 26.0541 226.136 27.4092 227.335C30.4636 230.034 34.4629 231.394 38.4256 232.388C50.2037 235.35 62.6484 235.635 74.5438 233.215" fill="#C8E4FF"/>
<path d="M89.3764 187.458C65.4831 179.516 44.0583 164.327 28.6764 144.414C31.6649 143.332 34.6827 142.345 37.7224 141.43C35.5836 139.368 32.8661 137.92 29.9655 137.277C28.1344 136.874 26.0761 136.714 24.7943 135.353C23.864 134.373 23.5564 132.977 23.2854 131.653C20.9708 120.325 18.6562 109.005 16.3416 97.6846C24.6038 101.239 32.3168 106.051 39.1361 111.901C46.2924 118.044 52.4305 125.276 58.2829 132.662C73.5403 151.917 87.428 173.154 92.4015 197.199" fill="#C8E4FF"/>
<path d="M77.7594 177.907C67.5707 148.692 65.8787 116.588 72.9324 86.4666C80.0301 99.213 84.1612 113.59 84.9083 128.15C84.9596 129.115 84.9743 130.154 84.4322 130.958C82.8721 133.269 78.7043 131.419 76.712 133.372C77.8986 135.726 80.6893 136.867 82.1469 139.068C83.5972 141.269 83.4727 144.107 83.2603 146.732C82.5718 155.274 81.5243 163.793 80.118 172.247" fill="#C8E4FF"/>
<path d="M157.093 161.387C133.222 140.377 123.121 154.17 104.326 130.542C80.2132 100.23 80.7332 83.227 79.2317 76.3675C78.6091 73.5301 79.4221 69.8297 83.1577 69.5299C84.7325 69.4056 86.3293 69.9833 87.7357 70.6342C91.2076 72.243 94.2034 74.3857 97.0894 76.5649C125.736 98.2477 145.982 126.029 154.325 155.113" fill="#C8E4FF"/>
<path d="M153.219 144.933C148.626 131.931 146.216 118.161 146.106 104.376C146.092 102.548 146.128 100.654 146.868 98.979C147.608 97.3043 149.234 95.8856 151.065 95.9441C152.867 95.9953 154.347 97.4067 155.357 98.8985C157.635 102.277 158.463 106.416 158.939 110.46C160.346 122.505 158.998 134.856 155.028 146.323" fill="#C8E4FF"/>
<path d="M263.793 157.577C263.793 154.733 266.1 152.429 268.949 152.429C271.799 152.429 274.106 154.733 274.106 157.577C274.106 160.422 271.799 162.726 268.949 162.726C266.1 162.733 263.793 160.422 263.793 157.577Z" fill="#C8E4FF"/>
<path d="M19.5047 213.66C20.604 211.038 19.3654 208.021 16.7382 206.924C14.111 205.826 11.0901 207.063 9.99075 209.686C8.89146 212.309 10.1301 215.325 12.7573 216.423C15.3845 217.52 18.4054 216.283 19.5047 213.66Z" fill="#C8E4FF"/>
<path d="M268.554 212.263C268.554 210.735 269.799 209.492 271.33 209.492C272.861 209.492 274.106 210.735 274.106 212.263C274.106 213.792 272.861 215.035 271.33 215.035C269.799 215.035 268.554 213.792 268.554 212.263Z" fill="#C8E4FF"/>
<path d="M44.9082 184.921C44.9082 183.392 46.1534 182.149 47.6843 182.149C49.2151 182.149 50.4603 183.392 50.4603 184.921C50.4603 186.449 49.2151 187.692 47.6843 187.692C46.1534 187.692 44.9082 186.456 44.9082 184.921Z" fill="#C8E4FF"/>
<path d="M240.376 168.679C240.376 167.582 241.262 166.697 242.361 166.697C243.459 166.697 244.346 167.582 244.346 168.679C244.346 169.776 243.459 170.66 242.361 170.66C241.262 170.66 240.376 169.768 240.376 168.679Z" fill="#C8E4FF"/>
<path d="M212.593 84.2729C214.345 84.2729 215.765 82.8552 215.765 81.1064C215.765 79.3576 214.345 77.9399 212.593 77.9399C210.841 77.9399 209.422 79.3576 209.422 81.1064C209.422 82.8552 210.841 84.2729 212.593 84.2729Z" fill="#C8E4FF"/>
<path d="M262.599 104.486C264.792 104.486 266.569 102.711 266.569 100.522C266.569 98.3332 264.792 96.5586 262.599 96.5586C260.406 96.5586 258.629 98.3332 258.629 100.522C258.629 102.711 260.406 104.486 262.599 104.486Z" fill="#C8E4FF"/>
<path d="M37.7666 99.2351C39.9592 99.2351 41.7366 97.4605 41.7366 95.2715C41.7366 93.0824 39.9592 91.3079 37.7666 91.3079C35.5741 91.3079 33.7966 93.0824 33.7966 95.2715C33.7966 97.4605 35.5741 99.2351 37.7666 99.2351Z" fill="#C8E4FF"/>
</g>
<path d="M119.957 242.934L82.3741 243.087C73.2768 243.094 65.8934 235.738 65.8934 226.648V220.351C65.8934 211.283 73.2548 203.927 82.3374 203.912L119.957 203.758V242.934Z" fill="#20314F"/>
<path d="M119.957 242.934L91.2298 243.087C84.2713 243.094 78.6312 235.738 78.6312 226.648V220.351C78.6312 211.283 84.2566 203.927 91.2005 203.912L119.957 203.758V242.934Z" fill="#F5FCFF"/>
<path d="M115.621 235.409C109.622 235.409 104.758 230.553 104.758 224.564V224.542C104.758 218.552 109.622 213.697 115.621 213.697L238.427 213.528C240.559 213.528 242.287 211.803 242.287 209.674V207.627C242.287 205.499 240.559 203.773 238.427 203.773L103.213 203.927C94.1303 203.934 86.7689 211.291 86.7689 220.366V226.662C86.7689 235.745 94.1522 243.109 103.25 243.102L238.427 242.948C240.559 242.948 242.287 241.222 242.287 239.094C242.287 236.966 240.559 235.24 238.427 235.24L115.621 235.409Z" fill="#20314F"/>
<path d="M104.758 224.534V224.556C104.758 230.545 109.417 235.401 115.167 235.401H236.984V213.682H115.167C109.417 213.682 104.758 218.545 104.758 224.534Z" fill="#C8E4FF"/>
<path d="M118.529 221.529V221.543C118.529 225.873 122.704 229.383 127.853 229.383H236.977V213.682H127.853C122.704 213.682 118.529 217.199 118.529 221.529Z" fill="#F2FAFA"/>
<path d="M118.72 223.518H237.029" stroke="#C8E4FF" stroke-width="1.9545" stroke-miterlimit="10"/>
<path d="M226.693 238.648L230.502 235.079L233.834 238.648V222.962H226.693V238.648Z" fill="#8FBFBF"/>
<path d="M192.011 204.438L229.594 204.592C238.691 204.599 246.075 197.242 246.075 188.152V181.856C246.075 172.788 238.713 165.431 229.631 165.417L192.011 165.263V204.438Z" fill="#0961F5"/>
<path d="M192.011 204.438L220.739 204.592C227.697 204.599 233.337 197.242 233.337 188.152V181.856C233.337 172.788 227.712 165.431 220.768 165.417L192.011 165.263V204.438Z" fill="#0961F5"/>
<path d="M196.347 196.906C202.346 196.906 207.21 192.05 207.21 186.061V186.039C207.21 180.05 202.346 175.194 196.347 175.194L73.5408 175.018C71.4093 175.018 69.6807 173.293 69.6807 171.164V169.117C69.6807 166.989 71.4093 165.263 73.5408 165.263L208.755 165.417C217.838 165.424 225.199 172.781 225.199 181.856V188.152C225.199 197.235 217.816 204.599 208.719 204.592L73.5408 204.438C71.4093 204.438 69.6807 202.712 69.6807 200.584C69.6807 198.456 71.4093 196.73 73.5408 196.73L196.347 196.906Z" fill="#0961F5"/>
<path d="M207.21 186.032V186.054C207.21 192.043 202.551 196.899 196.801 196.899H74.9839V175.179H196.801C202.551 175.187 207.21 180.042 207.21 186.032Z" fill="#C8E4FF"/>
<path d="M193.432 183.026V183.041C193.432 187.37 189.257 190.88 184.108 190.88H74.9839V175.179H184.108C189.264 175.187 193.432 178.697 193.432 183.026Z" fill="#F2FAFA"/>
<path d="M74.896 187.633H193.205" stroke="#C8E4FF" stroke-width="1.9545" stroke-miterlimit="10"/>
<path d="M80.9241 203.144L84.7329 199.583L88.0657 203.144V187.458H80.9241V203.144Z" fill="#FF6B00"/>
<path d="M152.538 165.022L190.121 165.175C199.218 165.183 206.602 157.826 206.602 148.736V142.44C206.602 133.372 199.24 126.015 190.158 126L152.574 126.315L152.538 165.022Z" fill="#BC611D"/>
<path d="M152.538 165.022L181.683 165.175C188.744 165.183 194.465 157.826 194.465 148.736V142.44C194.465 133.372 188.759 126.015 181.712 126L152.567 126.315L152.538 165.022Z" fill="#BC611D"/>
<path d="M156.874 157.489C162.873 157.489 167.736 152.634 167.736 146.644V146.622C167.736 140.633 162.873 135.777 156.874 135.777L34.0675 135.609C31.936 135.609 30.2074 133.883 30.2074 131.755V129.708C30.2074 127.58 31.936 125.854 34.0675 125.854L169.282 126.007C178.365 126.015 185.726 133.371 185.726 142.447V148.743C185.726 157.826 178.343 165.19 169.245 165.183L34.0675 165.029C31.936 165.029 30.2074 163.303 30.2074 161.175C30.2074 159.047 31.936 157.321 34.0675 157.321L156.874 157.489Z" fill="#FF6B00"/>
<path d="M167.737 146.615V146.637C167.737 152.626 163.078 157.482 157.328 157.482H35.5106V135.763H157.328C163.078 135.77 167.737 140.626 167.737 146.615Z" fill="#C8E4FF"/>
<path d="M153.959 143.609V143.624C153.959 147.953 149.784 151.464 144.634 151.464H35.5106V135.763H144.634C149.791 135.77 153.959 139.28 153.959 143.609Z" fill="#F2FAFA"/>
<path d="M35.6573 138.512H153.959" stroke="#C8E4FF" stroke-width="1.9545" stroke-miterlimit="10"/>
<path d="M70.2371 155.23L74.0459 151.661L77.3787 155.23V139.544H70.2371V155.23Z" fill="#20314F"/>
<g opacity="0.46">
<path d="M46.38 105.941H117.818V60.6959C117.818 58.4508 115.994 56.6372 113.753 56.6372H50.4526C48.2039 56.6372 46.3873 58.4581 46.3873 60.6959V105.941H46.38Z" fill="#C8E4FF"/>
<path d="M46.38 60.5496C46.38 58.3923 48.1306 56.6372 50.2987 56.6372H113.907C116.067 56.6372 117.825 58.385 117.825 60.5496V65.8515H46.38V60.5496Z" fill="#20314F"/>
<path d="M111.277 61.6905C111.277 60.9226 111.9 60.301 112.669 60.301C113.438 60.301 114.06 60.9226 114.06 61.6905C114.06 62.4583 113.438 63.0799 112.669 63.0799C111.9 63.0799 111.277 62.451 111.277 61.6905Z" fill="white"/>
<path d="M106.611 61.6905C106.611 60.9226 107.234 60.301 108.003 60.301C108.772 60.301 109.395 60.9226 109.395 61.6905C109.395 62.4583 108.772 63.0799 108.003 63.0799C107.234 63.0726 106.611 62.451 106.611 61.6905Z" fill="#FF6B00"/>
<path d="M103.337 63.0799C104.106 63.0799 104.729 62.4579 104.729 61.6905C104.729 60.9231 104.106 60.301 103.337 60.301C102.569 60.301 101.945 60.9231 101.945 61.6905C101.945 62.4579 102.569 63.0799 103.337 63.0799Z" fill="#C8E4FF"/>
</g>
<path d="M58.2899 119.016H129.728V73.7713C129.728 71.5262 127.904 69.7126 125.663 69.7126H62.3551C60.1064 69.7126 58.2899 71.5336 58.2899 73.7713V119.016Z" fill="#C8E4FF"/>
<path d="M58.2899 73.6251C58.2899 71.4677 60.0405 69.7126 62.2086 69.7126H125.817C127.977 69.7126 129.735 71.4604 129.735 73.6251V78.9269H58.2899V73.6251Z" fill="#20314F"/>
<path d="M123.18 74.7659C123.18 73.9981 123.802 73.3765 124.571 73.3765C125.34 73.3765 125.963 73.9981 125.963 74.7659C125.963 75.5338 125.34 76.1554 124.571 76.1554C123.802 76.1481 123.18 75.5265 123.18 74.7659Z" fill="white"/>
<path d="M118.521 74.7659C118.521 73.9981 119.144 73.3765 119.913 73.3765C120.682 73.3765 121.305 73.9981 121.305 74.7659C121.305 75.5338 120.682 76.1554 119.913 76.1554C119.137 76.1481 118.521 75.5265 118.521 74.7659Z" fill="#FF6B00"/>
<path d="M115.247 76.1554C116.015 76.1554 116.638 75.5333 116.638 74.7659C116.638 73.9985 116.015 73.3765 115.247 73.3765C114.478 73.3765 113.855 73.9985 113.855 74.7659C113.855 75.5333 114.478 76.1554 115.247 76.1554Z" fill="#C8E4FF"/>
<path d="M116.372 107.195C120.556 103.017 120.556 96.2429 116.372 92.0648C112.187 87.8867 105.402 87.8867 101.217 92.0648C97.032 96.2429 97.032 103.017 101.217 107.195C105.402 111.373 112.187 111.373 116.372 107.195Z" stroke="white" stroke-width="4.8883" stroke-miterlimit="10"/>
<path d="M85.7418 92.6929H89.0013V89.4386H85.7418V92.6929Z" fill="white"/>
<path d="M85.7418 100.963H89.0013V97.7086H85.7418V100.963Z" fill="white"/>
<path d="M85.7418 109.226H89.0013V105.971H85.7418V109.226Z" fill="white"/>
<path d="M83.3554 91.1907H65.0363" stroke="white" stroke-width="1.0301" stroke-miterlimit="10"/>
<path d="M83.3554 99.7102H65.0363" stroke="white" stroke-width="1.0301" stroke-miterlimit="10"/>
<path d="M83.3554 107.849H65.0363" stroke="white" stroke-width="1.0301" stroke-miterlimit="10"/>
<path d="M67.2125 99.3264C68.1951 95.1718 65.6183 91.0085 61.457 90.0275C57.2956 89.0465 53.1257 91.6192 52.1431 95.7738C51.1605 99.9284 53.7373 104.092 57.8986 105.073C62.06 106.054 66.2299 103.481 67.2125 99.3264Z" fill="#FF6B00"/>
<path d="M68.4388 99.6154C69.5813 94.7848 66.5852 89.944 61.7467 88.8034C56.9082 87.6627 52.0597 90.6541 50.9172 95.4847C49.7747 100.315 52.7709 105.156 57.6093 106.297C62.4478 107.437 67.2963 104.446 68.4388 99.6154Z" stroke="#FF6B00" stroke-width="1.2221" stroke-miterlimit="10"/>
<path d="M61.8136 101.772V93.2234L54.423 97.5014L61.8136 101.772Z" stroke="white" stroke-width="1.0301" stroke-miterlimit="10"/>
<path d="M144.839 65.7124C144.839 60.3886 149.16 56.0667 154.5 56.0667C159.833 56.0667 164.161 60.3813 164.161 65.7124C164.161 71.0362 154.969 79.4021 154.969 79.4021C154.969 79.4021 144.839 71.0362 144.839 65.7124Z" fill="#FF6B00"/>
<path d="M157.298 75.0436C157.298 75.0436 156.053 64.9299 157.452 65.5514C158.851 66.173 159.635 67.7307 158.075 68.0378C156.515 68.3523 150.281 68.0378 150.281 68.0378C150.281 68.0378 149.725 66.2681 150.75 65.8586C152.31 65.237 152.31 71.1458 152.618 75.3507" stroke="white" stroke-width="0.3512" stroke-miterlimit="10"/>
<path d="M151.072 77.2229H158.866C159.466 77.2229 159.957 76.733 159.957 76.1333C159.957 75.5337 159.466 75.0437 158.866 75.0437H151.072C150.471 75.0437 149.981 75.5337 149.981 76.1333C149.981 76.733 150.464 77.2229 151.072 77.2229Z" fill="#232D3F"/>
<path d="M154.808 82.203C157.305 82.203 159.327 80.1846 159.327 77.6909V76.9158H150.288V77.6909C150.288 80.1773 152.31 82.203 154.808 82.203Z" fill="#232D3F" stroke="#E9E9EA" stroke-width="0.4798" stroke-miterlimit="10"/>
<path d="M171.918 65.771H167.523" stroke="#FF6B00" stroke-width="0.9014" stroke-miterlimit="10" stroke-linecap="round"/>
<path d="M141.176 65.771H136.789" stroke="#FF6B00" stroke-width="0.9014" stroke-miterlimit="10" stroke-linecap="round"/>
<path d="M166.769 53.3684L163.664 56.4691" stroke="#FF6B00" stroke-width="0.9014" stroke-miterlimit="10" stroke-linecap="round"/>
<path d="M145.037 75.0732L141.931 78.1739" stroke="#FF6B00" stroke-width="0.9014" stroke-miterlimit="10" stroke-linecap="round"/>
<path d="M154.354 48.2346V52.6224" stroke="#FF6B00" stroke-width="0.9014" stroke-miterlimit="10" stroke-linecap="round"/>
<path d="M141.931 53.3684L145.036 56.4691" stroke="#FF6B00" stroke-width="0.9014" stroke-miterlimit="10" stroke-linecap="round"/>
<path d="M163.664 75.0732L166.769 78.1739" stroke="#FF6B00" stroke-width="0.9014" stroke-miterlimit="10" stroke-linecap="round"/>
<path d="M182.217 73.8809C182.217 73.8809 177.28 79.0658 180.349 81.5376C183.426 84.0166 183.125 87.3806 177.178 90.2546C171.223 93.1285 175.888 96.0025 175.888 96.0025L209.326 94.613C209.326 94.613 212.9 91.2418 207.443 87.8779C201.986 84.5066 208.93 83.9143 211.113 79.7532C213.296 75.5922 210.322 75.7896 206.052 73.6104C204.096 72.6085 203.744 71.4238 203.942 70.4366C204.382 68.1915 204.272 65.866 203.246 63.8257C200.873 59.1162 197.116 54.9917 189.974 56.7834C186.172 57.734 182.986 60.9444 181.03 64.5643C180.32 65.8879 180.562 70.6998 181.411 71.9138L182.407 74.115" fill="#232D3F"/>
<path d="M197.167 70.6046C197.226 70.7948 197.424 70.8898 197.599 70.8094C198.332 70.4876 200.148 69.9318 201.115 71.8698C202.097 73.8296 199.54 75.3726 198.456 75.9211C198.141 76.082 197.9 76.3599 197.775 76.7109C197.387 77.7786 196.515 81.8299 195.614 85.3401C193.402 93.9767 201.342 94.4886 201.342 94.4886C201.342 94.4886 192.597 120.837 186.187 120.917C183.257 120.954 185.184 94.6568 183.843 94.3277C183.843 94.3277 188.063 84.4114 187.499 81.7788C187.484 81.7202 180.936 82.8391 181.126 73.2738C180.767 65.1053 186.078 63.5989 187.44 63.2844C188.575 63.0138 194.105 61.2295 197.167 70.6046Z" fill="#F7A079"/>
<path d="M187.352 81.7934C187.352 81.7934 188.04 81.7934 189.725 81.6472C190.121 81.6106 190.882 81.4643 191.6 81.2084C192.003 81.0621 192.325 81.5667 192.025 81.8739C192.025 81.8739 190.817 83.2121 189.337 83.2852C188.187 83.3364 187.945 82.7514 187.352 81.7934Z" fill="#232D3F"/>
<path d="M200.178 72.9082C200.178 72.9082 199.401 70.0855 197.409 73.4275L200.178 72.9082Z" fill="#CC6233"/>
<path d="M188.451 72.9594C187.382 73.3909 186.862 74.6121 187.294 75.6798C187.726 76.7475 188.949 77.2667 190.019 76.8353C191.088 76.4038 191.608 75.1825 191.176 74.1148C190.744 73.0399 189.521 72.5206 188.451 72.9594Z" fill="#EB895E"/>
<path d="M183.529 71.6943L183.895 75.3581L182.687 75.3508C182.459 75.3435 183.529 71.6943 183.529 71.6943Z" fill="#CC6233"/>
<path d="M186.693 69.8734C187.088 70.1878 186.4 68.8788 185.821 68.7618C185.243 68.6521 184.693 68.9666 184.598 69.4639C184.591 69.4712 185.697 69.0836 186.693 69.8734Z" fill="#232D3F"/>
<path d="M181.251 69.5955C181.815 69.4273 182.43 69.6906 182.577 70.1805C182.577 70.1805 181.881 70.1001 181.09 70.4584" fill="#232D3F"/>
<path d="M185.433 73.069C185.448 73.5882 185.214 73.8149 184.957 73.8222C184.708 73.8295 184.533 73.6101 184.518 73.0909C184.503 72.5717 184.701 72.1475 184.95 72.1402C185.206 72.1329 185.419 72.5498 185.433 73.069Z" fill="#232D3F"/>
<path d="M182.65 73.1204C182.665 73.6176 182.46 73.8736 182.218 73.8809C181.976 73.8882 181.786 73.6396 181.771 73.1423C181.756 72.645 181.947 72.2355 182.189 72.2355C182.438 72.2209 182.643 72.6231 182.65 73.1204Z" fill="#232D3F"/>
<path d="M182.394 75.7456C182.394 75.7456 182.899 77.647 183.587 77.6762C184.811 77.7347 185.375 75.7968 185.375 75.7968L182.394 75.7456Z" fill="white"/>
<path d="M184.422 63.3138C184.422 63.3138 183.909 70.9119 192.955 64.2572C192.955 64.2499 189.982 54.5968 184.422 63.3138Z" fill="#232D3F"/>
<path d="M190.428 64.2498C190.428 64.2498 191.82 74.2027 196.926 71.1824C202.038 68.1622 197.519 60.5348 190.428 64.2498Z" fill="#232D3F"/>
<path d="M167.311 118.504C169.801 115.126 178.833 90.7737 183.858 91.5343C194.178 94.5545 187.71 106.877 187.71 106.877C187.71 106.877 181.118 126.007 171.508 133.935C171.508 133.935 156.763 128.048 144.626 106.219C144.282 105.604 144.341 104.836 144.773 104.281C145.337 103.549 146.216 102.423 147.307 101.041C144.626 96.9166 143.476 94.8763 145.183 94.8763C145.557 94.847 147.051 96.7776 148.787 98.8326C149.402 99.5565 150.12 100.185 150.911 100.705C151.328 100.975 151.797 101.253 152.215 101.414C152.625 101.575 152.933 101.933 153.064 102.35C154.119 105.677 153.848 107.279 154.434 107.879L167.311 118.504Z" fill="#F7A079"/>
<path d="M152.625 101.926C151.966 101.926 151.314 101.948 150.655 102.006C149.571 102.102 148.443 102.299 147.593 102.986C147.461 103.096 147.322 103.235 147.315 103.403C147.3 103.645 147.52 103.835 147.732 103.959C148.889 104.646 150.252 104.88 151.578 105.093" stroke="#B35B2F" stroke-width="0.3055" stroke-miterlimit="10"/>
<path d="M147.329 101.122C147.637 101.487 147.937 101.853 148.245 102.219" stroke="#B35B2F" stroke-width="0.3055" stroke-miterlimit="10"/>
<path d="M149.534 105.166C149.065 106.175 148.216 107.001 147.198 107.447" stroke="#B35B2F" stroke-width="0.3055" stroke-miterlimit="10"/>
<path d="M183.271 91.5564C183.271 91.5564 174.203 92.7557 172.042 102.716L179.631 108.435L183.271 91.5564Z" fill="#0961F5"/>
<path d="M169.303 113.378L167.809 116.515L178.078 126.775L180.231 123.792L169.303 113.378Z" fill="#15232F"/>
<path d="M198.8 92.8216C198.8 92.8216 196.573 91.0445 195.731 90.401C194.639 91.3444 191.233 92.317 188.633 91.71C185.857 91.0665 185.608 89.8525 185.608 89.8525C185.659 89.9842 183.227 91.2859 182.282 91.6881C179.807 96.7194 175.888 109.093 175.068 113.151C174.057 118.183 173.822 131.2 173.822 133.174L201.026 133.013C201.026 133.013 205.582 124.369 206.403 112.552C201.122 115.879 196.69 107.784 198.8 92.8216Z" fill="#0961F5"/>
<g opacity="0.36">
<path d="M181.228 133.057C181.228 133.057 201.188 118.131 201.444 111.484L205.817 122.395L201.276 132.647L181.228 133.057Z" fill="#0961F5"/>
</g>
<path d="M133.397 209.908L128.885 222.743C128.885 222.743 118.865 228.834 117.664 225.258C116.462 221.69 120.696 220.768 120.696 220.768L123.194 207.064L133.397 209.908Z" fill="#F7A079"/>
<path d="M120.674 220.476L108.53 225.171C107.9 225.339 108.024 226.063 108.713 226.238C112.69 227.255 128.409 231.526 128.834 231.628C129.317 231.745 129.823 221.105 129.508 220.966C129.508 220.966 122.996 225.441 123.406 224.783C123.619 224.432 121.062 220.308 120.674 220.476Z" fill="#FF6B00"/>
<path d="M159.056 159.983L136.518 211.035L120.264 209.126C120.264 209.126 135.632 145.262 145.476 139.01C152.486 134.564 191.153 141.591 191.153 141.591L159.056 159.983Z" fill="#15232F"/>
<path opacity="0.65" d="M169.076 153.343C169.076 153.343 152.287 146.505 148.977 149.591C145.666 152.678 127.332 209.565 127.332 209.565" stroke="white" stroke-width="0.34" stroke-miterlimit="10"/>
<path d="M172.028 213.792L175.742 226.874C175.742 226.874 171.061 237.61 168.021 235.387C164.982 233.156 167.904 229.975 167.904 229.975L162.044 217.338L172.028 213.792Z" fill="#F7A079"/>
<path d="M167.553 229.807L160.492 240.564C160.074 241.061 160.594 241.581 161.261 241.332C165.099 239.877 180.408 234.326 180.818 234.173C181.287 233.99 175.573 225.039 175.244 225.105C175.244 225.105 173.618 230.728 172.834 230.677C171.647 230.604 167.773 229.448 167.553 229.807Z" fill="#FF6B00"/>
<path d="M199.481 132.962C199.481 132.962 220.906 154.089 210.212 164.451C199.518 174.814 159.437 167.537 159.437 167.537L176.159 217.507L160.36 221.763C160.36 221.763 132.211 162.557 139.03 153.102C143.879 146.374 177.382 138.798 177.382 138.798L178.174 131.265L199.481 132.962Z" fill="#232D3F"/>
<path d="M191.072 132.26C190.999 132.918 207.201 153.482 198.47 156.071C189.739 158.667 152.2 153.387 147.864 159.618C142.846 166.828 167.084 219.174 167.084 219.174" stroke="white" stroke-width="0.34" stroke-miterlimit="10"/>
<path d="M198.726 60.4252C197.496 58.4434 196.639 56.1106 196.961 53.7997C197.284 51.4888 199.063 49.2876 201.393 49.0463C202.257 48.9586 203.173 49.156 203.824 49.7264C204.887 50.6551 204.974 52.2567 204.857 53.6608C204.733 55.1526 204.403 56.7468 203.312 57.7779C204.249 57.5585 205.231 58.3922 205.297 59.3502C205.363 60.3082 204.608 61.2077 203.678 61.4563C202.748 61.705 201.73 61.3686 201.012 60.725" fill="#232D3F"/>
<path d="M198.068 82.8247C200.341 82.8247 202.184 80.9846 202.184 78.7148C202.184 76.445 200.341 74.605 198.068 74.605C195.794 74.605 193.951 76.445 193.951 78.7148C193.951 80.9846 195.794 82.8247 198.068 82.8247Z" stroke="white" stroke-width="1.2221" stroke-miterlimit="10"/>
<path d="M178.02 143.997C178.262 145.255 191.344 141.913 191.344 141.913C209.421 144.575 217.485 140.392 220.349 138.191C221.184 137.547 221.529 136.465 221.25 135.456C218.218 124.508 212.395 107.966 212.395 107.966C212.395 107.966 208.762 93.07 200.17 99.5346C196.559 103.111 207.106 125.678 208.33 129.693L190.523 135.105C189.615 135.229 182.078 131.741 181.953 132.647C181.726 134.286 185.791 136.18 185.791 136.18C185.982 137.138 179.214 137.086 177.141 139.683C177.141 139.683 175.808 140.575 182.986 138.907C182.986 138.907 176.804 140.743 176.811 141.679C176.811 141.913 177.441 141.92 177.243 142.037C176.328 142.571 177.112 143.324 178.921 142.893C178.459 143.156 178.02 143.997 178.02 143.997Z" fill="#F7A079"/>
<path d="M177.002 141.972C177.917 141.372 178.972 141.057 180.005 140.794C181.052 140.546 182.1 140.37 183.184 140.304C182.195 140.75 181.155 141.021 180.122 141.277C179.082 141.525 178.056 141.738 177.002 141.972Z" fill="#B3577C"/>
<path d="M177.961 144.114C177.99 143.588 178.437 143.142 178.884 142.9C179.338 142.63 179.822 142.462 180.312 142.323C181.294 142.059 182.283 141.935 183.301 141.891C182.371 142.315 181.389 142.535 180.444 142.805C179.968 142.93 179.507 143.076 179.06 143.251C178.62 143.427 178.196 143.654 177.961 144.114Z" fill="#B3577C"/>
<path d="M176.95 139.865C178.152 139.617 179.324 139.412 180.495 139.156C181.667 138.915 182.825 138.608 184.019 138.352C182.964 138.98 181.792 139.383 180.598 139.646C179.404 139.895 178.174 140.012 176.95 139.865Z" fill="#B3577C"/>
<path d="M198.61 92.931C198.61 92.931 210.886 87.3366 214.907 105.985L200.99 113.714C200.997 113.707 189.417 94.9932 198.61 92.931Z" fill="#0961F5"/>
<path d="M174.048 146.399H204.775V142.801H174.048V146.399Z" fill="#060B0F"/>
<path d="M204.777 142.805H184.7L186.274 146.403H204.777V142.805Z" fill="white"/>
<path d="M135.646 146.403H184.07L172.38 113.056H123.956L135.646 146.403Z" fill="white"/>
<path d="M151.167 130.666C151.167 128.991 152.53 127.631 154.207 127.631C155.884 127.631 157.247 128.991 157.247 130.666C157.247 132.34 155.884 133.701 154.207 133.701C152.522 133.701 151.167 132.34 151.167 130.666Z" fill="#060B0F"/>
</g>
<defs>
<clipPath id="clip0_47_946">
<rect width="273" height="191" fill="white" transform="translate(8 50)"/>
</clipPath>
</defs>
</svg>
