<svg width="290" height="290" viewBox="0 0 290 290" fill="none" xmlns="http://www.w3.org/2000/svg">
<path d="M170.115 147.337L149.094 147.513L128.07 147.337L120.323 164.417H149.094H177.865L170.115 147.337Z" fill="#0961F5"/>
<path d="M170.044 150.201H127.891C123.663 150.201 120.234 146.772 120.234 142.544H177.705C177.705 146.775 174.275 150.201 170.044 150.201Z" fill="#16397F"/>
<path d="M188.683 172.598H109.253V170.379C109.253 164.788 113.784 160.257 119.375 160.257H178.561C184.152 160.257 188.683 164.788 188.683 170.379V172.598Z" fill="#16397F"/>
<path d="M238.493 48.5718H59.442V144.616H238.493V48.5718Z" fill="#0961F5"/>
<path d="M228.113 132.45H69.8264C65.771 132.45 62.4821 129.161 62.4821 125.106V60.8177C62.4821 56.7624 65.771 53.4734 69.8264 53.4734H228.113C232.168 53.4734 235.457 56.7624 235.457 60.8177V125.106C235.457 129.161 232.168 132.45 228.113 132.45Z" fill="#95BCFF"/>
<path d="M228.113 130.611H69.8264C65.771 130.611 62.4821 127.322 62.4821 123.267V58.9784C62.4821 54.923 65.771 51.634 69.8264 51.634H228.113C232.168 51.634 235.457 54.923 235.457 58.9784V123.267C235.457 127.322 232.168 130.611 228.113 130.611Z" fill="white"/>
<path d="M153.31 139.599C153.954 136.848 152.247 134.096 149.496 133.451C146.746 132.807 143.994 134.514 143.349 137.265C142.705 140.016 144.412 142.768 147.163 143.412C149.913 144.057 152.666 142.349 153.31 139.599Z" fill="white"/>
<path d="M151.808 138.035L147.06 135.296C146.67 135.069 146.178 135.353 146.178 135.803V141.286C146.178 141.736 146.667 142.02 147.06 141.794L151.808 139.054C152.201 138.824 152.201 138.262 151.808 138.035Z" fill="#16397F"/>
<path d="M153.414 120.671H31.0451C30.0042 120.671 29.158 119.824 29.158 118.783V47.0549C29.158 46.0139 30.0042 45.1677 31.0451 45.1677H153.414C154.455 45.1677 155.302 46.0139 155.302 47.0549V118.787C155.302 119.828 154.459 120.671 153.414 120.671Z" fill="#0984F5"/>
<path d="M148.2 117.634H36.26C35.1392 117.634 34.2323 116.727 34.2323 115.606V50.232C34.2323 49.1112 35.1392 48.2043 36.26 48.2043H148.197C149.318 48.2043 150.225 49.1112 150.225 50.232V115.606C150.228 116.727 149.321 117.634 148.2 117.634Z" fill="white"/>
<path d="M45.1305 117.634H58.8708L118.018 48.2043H96.9272L45.1305 117.634Z" fill="url(#paint0_linear_47_1448)"/>
<path d="M85.9042 117.634L133.888 48.2043H123.332C105.028 69.3815 76.0883 103.367 63.951 117.634H85.9042Z" fill="url(#paint1_linear_47_1448)"/>
<path d="M59.4421 85.2773C61.7647 85.2773 63.6475 79.0584 63.6475 71.3869C63.6475 63.7155 61.7647 57.4966 59.4421 57.4966C57.1195 57.4966 55.2367 63.7155 55.2367 71.3869C55.2367 79.0584 57.1195 85.2773 59.4421 85.2773Z" stroke="#16397F" stroke-width="1.8752" stroke-miterlimit="10" stroke-linecap="round" stroke-linejoin="round"/>
<path d="M59.4421 75.5922C67.1135 75.5922 73.3325 73.7094 73.3325 71.3868C73.3325 69.0642 67.1135 67.1814 59.4421 67.1814C51.7707 67.1814 45.5518 69.0642 45.5518 71.3868C45.5518 73.7094 51.7707 75.5922 59.4421 75.5922Z" stroke="#16397F" stroke-width="1.8752" stroke-miterlimit="10" stroke-linecap="round" stroke-linejoin="round"/>
<path d="M62.4153 74.3608C67.8398 68.9363 70.9058 63.2076 69.2635 61.5653C67.6212 59.923 61.8925 62.989 56.468 68.4135C51.0435 73.838 47.9775 79.5667 49.6198 81.209C51.2621 82.8513 56.9908 79.7853 62.4153 74.3608Z" stroke="#16397F" stroke-width="1.8752" stroke-miterlimit="10" stroke-linecap="round" stroke-linejoin="round"/>
<path d="M69.2635 81.2091C70.9058 79.5668 67.8398 73.8381 62.4153 68.4136C56.9908 62.9892 51.2621 59.9231 49.6198 61.5654C47.9775 63.2077 51.0435 68.9365 56.468 74.3609C61.8925 79.7854 67.6212 82.8514 69.2635 81.2091Z" stroke="#16397F" stroke-width="1.8752" stroke-miterlimit="10" stroke-linecap="round" stroke-linejoin="round"/>
<path d="M88.2928 85.303C88.2928 85.303 84.9431 88.7388 89.0751 92.2992C93.2071 95.8596 95.9756 98.1939 93.7818 100.985C91.5881 103.776 86.4726 102.396 83.2699 103.367C79.4604 104.52 79.7606 111.602 79.7606 111.602" stroke="#16397F" stroke-width="4" stroke-miterlimit="10" stroke-linecap="round" stroke-linejoin="round"/>
<path d="M97.4824 88.4102C97.4824 88.4102 98.0603 93.1744 92.6128 93.4969C87.1684 93.8194 83.5505 93.995 83.6016 97.5427C83.6527 101.093 88.5542 103.102 90.5117 105.816C92.8395 109.045 88.3052 114.492 88.3052 114.492" stroke="#16397F" stroke-width="4" stroke-miterlimit="10" stroke-linecap="round" stroke-linejoin="round"/>
<path d="M81.321 71.751V60.8419H87.9048V62.0138H82.642V65.6998H87.5639V66.8717H82.642V70.5791H87.9901V71.751H81.321ZM94.8455 65.295V64.1444H101.408V65.295H94.8455ZM94.8455 68.4484V67.2979H101.408V68.4484H94.8455ZM108.611 60.8419H110.188L113.895 69.8973H114.023L117.73 60.8419H119.307V71.751H118.071V63.4626H117.965L114.556 71.751H113.362L109.953 63.4626H109.847V71.751H108.611V60.8419ZM130.734 64.251H129.413C129.335 63.871 129.198 63.5372 129.003 63.2496C128.811 62.9619 128.577 62.7204 128.3 62.5251C128.026 62.3263 127.723 62.1771 127.389 62.0777C127.055 61.9782 126.707 61.9285 126.345 61.9285C125.684 61.9285 125.086 62.0954 124.55 62.4292C124.017 62.7631 123.593 63.2549 123.277 63.9047C122.964 64.5546 122.808 65.3518 122.808 66.2964C122.808 67.241 122.964 68.0383 123.277 68.6881C123.593 69.338 124.017 69.8298 124.55 70.1636C125.086 70.4974 125.684 70.6643 126.345 70.6643C126.707 70.6643 127.055 70.6146 127.389 70.5152C127.723 70.4157 128.026 70.2684 128.3 70.0731C128.577 69.8742 128.811 69.6309 129.003 69.3433C129.198 69.0521 129.335 68.7183 129.413 68.3419H130.734C130.635 68.8994 130.454 69.3983 130.191 69.8387C129.928 70.279 129.601 70.6537 129.211 70.9626C128.82 71.268 128.382 71.5006 127.895 71.6604C127.412 71.8202 126.895 71.9001 126.345 71.9001C125.415 71.9001 124.587 71.6729 123.863 71.2183C123.138 70.7638 122.568 70.1175 122.153 69.2794C121.737 68.4413 121.53 67.447 121.53 66.2964C121.53 65.1459 121.737 64.1515 122.153 63.3135C122.568 62.4754 123.138 61.8291 123.863 61.3746C124.587 60.92 125.415 60.6927 126.345 60.6927C126.895 60.6927 127.412 60.7726 127.895 60.9324C128.382 61.0922 128.82 61.3266 129.211 61.6356C129.601 61.941 129.928 62.3138 130.191 62.7542C130.454 63.191 130.635 63.6899 130.734 64.251Z" fill="#4360A4"/>
<path d="M133.903 66V65.233L136.784 62.0795C137.122 61.7102 137.401 61.3892 137.619 61.1165C137.838 60.8409 138 60.5824 138.105 60.3409C138.213 60.0966 138.267 59.8409 138.267 59.5739C138.267 59.267 138.193 59.0014 138.045 58.777C137.901 58.5526 137.702 58.3793 137.449 58.2571C137.196 58.1349 136.912 58.0739 136.597 58.0739C136.261 58.0739 135.969 58.1435 135.719 58.2827C135.472 58.419 135.28 58.6108 135.143 58.858C135.01 59.1051 134.943 59.3949 134.943 59.7273H133.938C133.938 59.2159 134.055 58.767 134.291 58.3807C134.527 57.9943 134.848 57.6932 135.254 57.4773C135.663 57.2614 136.122 57.1534 136.631 57.1534C137.142 57.1534 137.595 57.2614 137.99 57.4773C138.385 57.6932 138.695 57.9844 138.919 58.3509C139.143 58.7173 139.256 59.125 139.256 59.5739C139.256 59.8949 139.197 60.2088 139.081 60.5156C138.967 60.8196 138.768 61.1591 138.484 61.5341C138.203 61.9062 137.812 62.3608 137.312 62.8977L135.352 64.9943V65.0625H139.409V66H133.903Z" fill="#4360A4"/>
<path d="M221.519 81.9692C221.519 81.9692 233.723 101.042 233.739 107.547C233.755 114.051 217.093 122.823 217.093 122.823L221.519 81.9692Z" fill="#4360A4"/>
<path d="M221.519 81.9692L217.093 122.823C217.093 122.823 225.181 118.563 230.079 113.78C227.886 106.062 227.426 98.6951 227.732 92.5227C224.645 86.8548 221.519 81.9692 221.519 81.9692Z" fill="#2F5196"/>
<path d="M201.996 77.9265C201.996 77.9265 183.418 77.9584 180.435 82.3682C177.453 86.7748 179.008 130.611 179.008 130.611H224.048C224.048 130.611 225.772 84.6769 221.522 81.9723C217.269 79.2645 201.996 77.9265 201.996 77.9265Z" fill="#4360A4"/>
<path d="M190.388 92.861C194.424 84.9419 200.715 80.6982 206.98 78.4853C204.109 78.1149 201.996 77.9297 201.996 77.9297C201.996 77.9297 183.418 77.9616 180.435 82.3714C177.453 86.778 179.008 130.614 179.008 130.614H189.737C186.71 118.429 184.979 103.475 190.388 92.861Z" fill="#2F5196"/>
<path d="M195.788 71.1221L195.172 75.2541C195.172 75.2541 193.974 83.3073 201.203 89.4094C201.203 89.4094 208.187 82.8794 207.235 75.2541L206.696 71.1221H195.788Z" fill="#E1986E"/>
<path d="M202.42 71.1221H195.788L195.172 75.2541C195.172 75.2541 193.974 83.3073 201.203 89.4094C201.203 89.4094 202.736 87.9757 204.266 85.6702C199.773 81.005 201.309 74.3057 202.42 71.1221Z" fill="#C46033"/>
<path d="M139.463 102.22C139.463 102.22 132.972 96.8143 131.764 97.6733C130.557 98.5323 132.387 100.825 132.387 100.825C132.387 100.825 124.443 100.886 121.553 102.498C118.663 104.111 125.921 103.625 125.921 103.625C125.921 103.625 120.272 104.717 120.946 105.522C121.62 106.327 126.256 105.953 126.256 105.953C126.256 105.953 119.857 107.914 120.873 108.498C121.888 109.083 126.659 108.208 126.659 108.208C126.659 108.208 123.031 110.705 123.903 110.97C124.778 111.232 136.452 110.015 136.452 110.015L139.463 102.22Z" fill="#E1986E"/>
<path d="M183.232 101.064C180.41 106.796 172.756 112.467 166.615 114.444C159.098 116.864 135.992 110.248 135.992 110.248L137.928 100.432C137.928 100.432 159.648 102.217 162.675 101.345C165.169 100.624 179.768 79.6924 184.238 80.0692C188.294 80.4109 186.055 95.3327 183.232 101.064Z" fill="#4360A4"/>
<path d="M185.129 80.4587C185.573 82.3874 185.49 85.223 184.34 89.4092C180.512 103.341 171.542 110.899 164.083 112.11C156.624 113.32 138.988 110.497 138.585 108.782C138.269 107.444 140.294 102.967 140.616 100.643C140.204 100.611 139.831 100.582 139.502 100.557C138.748 103.114 138.138 108.562 137.477 108.782C136.772 109.019 138.371 103.137 139.112 100.528C138.362 100.47 137.928 100.432 137.928 100.432L135.992 110.248C135.992 110.248 159.098 116.861 166.615 114.444C172.756 112.467 180.41 106.799 183.232 101.064C185.816 95.8148 187.91 82.8632 185.129 80.4587Z" fill="#2F5196"/>
<path d="M196.401 86.609C196.57 86.676 201.2 89.4094 201.2 89.4094L200.227 85.6702L196.401 86.609Z" fill="#16397F"/>
<path d="M206 86.609C205.831 86.676 201.2 89.4094 201.2 89.4094L202.174 85.6702L206 86.609Z" fill="#16397F"/>
<path d="M195.168 75.2539C195.168 75.2539 191.707 77.6009 191.701 78.5684C191.697 79.536 194.878 90.5844 194.878 90.5844L200.22 85.6701L195.168 75.2539Z" fill="#16397F"/>
<path d="M207.229 75.2539C207.229 75.2539 210.691 77.6009 210.697 78.5684C210.7 79.536 207.52 90.5844 207.52 90.5844L202.177 85.6701L207.229 75.2539Z" fill="#16397F"/>
<path d="M191.937 66.0224C191.937 66.0224 187.281 58.6333 187.374 53.1538C187.466 47.6743 192.991 47.6903 192.991 47.6903C192.991 47.6903 194.715 45.9947 198.279 46.0618C201.842 46.1288 207.427 46.4481 209.809 48.5716C212.191 50.6983 216.652 47.917 215.135 53.9425C213.619 59.9713 210.164 66.1692 210.164 66.1692L191.937 66.0224Z" fill="#3D3335"/>
<path d="M191.889 60.1021C191.889 60.1021 189.28 57.0654 187.591 58.7514C185.902 60.4406 187.099 64.5981 191.426 63.5125L191.889 60.1021Z" fill="#C46033"/>
<path d="M210.464 60.1021C210.464 60.1021 213.072 57.0654 214.762 58.7514C216.451 60.4406 215.253 64.5981 210.927 63.5125L210.464 60.1021Z" fill="#C46033"/>
<path d="M190.727 59.0294C190.727 59.0294 187.409 75.1517 201.545 74.2704C215.681 73.3891 211.067 59.4956 211.067 59.4956C211.067 59.4956 208.736 58.2566 208.229 57.2827C207.721 56.3088 202.615 57.8606 200.817 55.2774C200.817 55.2774 195.96 55.9128 194.399 54.0288C192.841 52.1448 194.249 58.4769 193.428 57.8319C192.608 57.1869 190.867 58.1512 190.727 59.0294Z" fill="#E1986E"/>
<path d="M201.548 74.2705C204.358 74.0949 206.418 73.4019 207.928 72.4089C193.345 75.0624 192.138 64.6239 192.876 57.6244C192.001 57.5478 190.842 58.3205 190.727 59.0294C190.727 59.0294 187.409 75.1486 201.548 74.2705Z" fill="#CE7345"/>
<path d="M201.408 60.7952C201.408 60.7952 200.389 62.0501 200.817 63.0815C201.245 64.1161 203.34 65.7765 201.89 66.4311C200.441 67.0857 199.962 66.1501 199.962 66.1501" stroke="#5E4E4C" stroke-width="1.8752" stroke-miterlimit="10" stroke-linecap="round" stroke-linejoin="round"/>
<path d="M196.57 67.7275C196.57 67.7275 198.429 70.0777 201.549 69.0367" stroke="#5E4E4C" stroke-width="1.8752" stroke-miterlimit="10" stroke-linecap="round" stroke-linejoin="round"/>
<path d="M196.209 61.2007C196.209 61.6892 195.814 62.0852 195.325 62.0852C194.836 62.0852 194.44 61.6892 194.44 61.2007C194.44 60.7121 194.836 60.3162 195.325 60.3162C195.814 60.3162 196.209 60.7121 196.209 61.2007Z" fill="#5E4E4C"/>
<path d="M195.721 61.0506C195.892 61.0506 196.031 60.912 196.031 60.7409C196.031 60.5698 195.892 60.4312 195.721 60.4312C195.55 60.4312 195.411 60.5698 195.411 60.7409C195.411 60.912 195.55 61.0506 195.721 61.0506Z" fill="white"/>
<path d="M207.574 61.2007C207.574 61.6892 207.178 62.0852 206.69 62.0852C206.201 62.0852 205.805 61.6892 205.805 61.2007C205.805 60.7121 206.201 60.3162 206.69 60.3162C207.178 60.3162 207.574 60.7121 207.574 61.2007Z" fill="#5E4E4C"/>
<path d="M207.082 61.0506C207.254 61.0506 207.392 60.912 207.392 60.7409C207.392 60.5698 207.254 60.4312 207.082 60.4312C206.911 60.4312 206.773 60.5698 206.773 60.7409C206.773 60.912 206.911 61.0506 207.082 61.0506Z" fill="white"/>
<path d="M201.2 89.4092V130.611" stroke="#16397F" stroke-width="1.8752" stroke-miterlimit="10"/>
<path d="M78.0646 234.07C117.224 234.07 148.969 231.908 148.969 229.242C148.969 226.575 117.224 224.414 78.0646 224.414C38.905 224.414 7.15991 226.575 7.15991 229.242C7.15991 231.908 38.905 234.07 78.0646 234.07Z" fill="#A1C1DE"/>
<path d="M78.5564 188.733C78.5564 188.733 93.0758 220.03 95.8635 220.374C98.6511 220.719 101.576 218.168 101.611 216.757C101.646 215.342 89.2791 182.842 89.2791 182.842L78.5564 188.733Z" fill="#CE7345"/>
<path d="M93.1425 217.539C93.1425 217.539 95.3969 219.653 101.643 217.21C101.643 217.21 109.69 221.955 112.417 221.978C113.675 221.987 114.237 222.658 114.479 223.379C114.773 224.258 114.147 225.177 113.224 225.263C108.601 225.694 93.9312 226.988 93.0978 226.052C92.1047 224.941 92.044 217.957 93.1425 217.539Z" fill="#16397F"/>
<path d="M76.7556 175.481C76.7556 175.481 83.9243 177.126 86.581 178.713C89.2378 180.3 89.5603 182.57 88.8131 184.703C88.0659 186.836 74.8429 220.1 73.2559 220.994C71.6689 221.888 66.5278 219.512 66.5278 219.512C66.5278 219.512 74.2841 192.862 73.5017 191.566C72.7226 190.269 69.0568 191.051 69.1526 189.037C69.2484 187.018 76.7556 175.481 76.7556 175.481Z" fill="#E1986E"/>
<path d="M67.307 216.801C67.307 216.801 67.8466 219.602 74.5172 218.931C74.5172 218.931 80.9898 225.669 83.6082 226.425C84.8152 226.773 85.1792 227.572 85.2175 228.332C85.2654 229.258 84.4129 229.973 83.4996 229.807C78.9334 228.977 64.4555 226.269 63.903 225.142C63.2516 223.804 65.6689 215.741 67.307 216.801Z" fill="#16397F"/>
<path d="M30.9367 180.613C30.9367 180.613 27.6445 188.321 31.5306 193.248C35.4167 198.175 67.0739 188.567 68.8174 191.69C70.5609 194.813 80.9547 177.381 79.4858 175.683C78.0138 173.984 52.1969 172.544 52.1969 172.544C52.1969 172.544 35.4806 173.795 30.9367 180.613Z" fill="#3D3335"/>
<path d="M68.8202 191.69C69.7718 193.395 73.3003 188.973 76.0719 184.33C67.9166 183.522 49.2715 189.544 42.8437 187.325C36.2721 185.058 43.6483 176.143 46.1231 173.403C40.8639 174.409 33.6824 176.494 30.9395 180.61C30.9395 180.61 27.6473 188.318 31.5334 193.245C35.4195 198.172 67.0767 188.567 68.8202 191.69Z" fill="#261E20"/>
<path d="M54.1317 134.264C54.1317 134.264 66.7799 137.361 66.9555 133.629C67.1312 129.899 63.8103 127.977 64.9151 121.395C64.9151 121.395 67.9295 122.2 66.9619 118.052C65.9944 113.907 65.2664 112.435 59.7932 113.416C54.3201 114.396 52.6788 115.399 50.2073 115.111C47.7358 114.824 46.1679 114.849 46.0146 116.318C45.8646 117.784 46.3787 124.589 45.1621 129.021C43.9518 133.456 44.6065 134.97 54.1317 134.264Z" fill="#3D3335"/>
<path d="M49.5211 130.081C49.5211 130.081 47.024 135.771 48.0586 136.828C49.0932 137.885 55.7765 139.98 55.8372 138.153C55.8978 136.327 55.8372 131.837 55.8372 131.837L49.5211 130.081Z" fill="#E1986E"/>
<path d="M49.5211 130.081C49.5211 130.081 47.024 135.771 48.0586 136.828C48.7483 137.534 51.9543 138.699 54.0298 138.856C52.2129 136.668 52.0181 133.022 52.098 130.796L49.5211 130.081Z" fill="#C46033"/>
<path d="M49.1702 123.378C49.1702 123.378 46.8839 121.862 46.0951 122.999C45.3064 124.135 45.2649 126.77 49.5214 126.096L49.1702 123.378Z" fill="#C46033"/>
<path d="M61.9236 123.305C61.9236 123.305 63.6798 121.948 64.1939 122.826C64.708 123.704 64.0439 126.3 62.5558 126.249C61.0678 126.198 61.9236 123.305 61.9236 123.305Z" fill="#C46033"/>
<path d="M48.1869 121.708C48.1869 121.708 46.6734 131.626 52.2487 133.712C56.0294 135.123 62.2785 133.102 62.7159 125.748C62.7734 124.803 62.6425 122.797 62.6457 121.967C62.6489 121.137 59.7016 120.798 59.1236 120.425C58.5456 120.051 59.7974 121.514 57.9102 121.21C56.023 120.907 54.9661 119.722 54.9661 119.722C54.9661 119.722 56.0549 121.625 53.4174 122.191C50.7734 122.756 48.1869 121.708 48.1869 121.708Z" fill="#E1986E"/>
<path d="M49.7451 122.149C48.8063 121.961 48.1836 121.708 48.1836 121.708C48.1836 121.708 46.6701 131.626 52.2454 133.711C53.7909 134.289 55.7515 134.293 57.5588 133.59C50.0772 133.98 49.4801 126.472 49.7451 122.149Z" fill="#CE7345"/>
<path d="M56.5115 124.483C56.5115 124.483 56.3422 126.856 56.9649 127.427C57.5876 127.999 56.272 128.532 56.272 128.532" stroke="#3D3335" stroke-width="0.9376" stroke-miterlimit="10" stroke-linecap="round" stroke-linejoin="round"/>
<path d="M53.4618 124.857C53.4618 125.25 53.1424 125.566 52.7497 125.566C52.3569 125.566 52.0376 125.246 52.0376 124.857C52.0376 124.467 52.3569 124.145 52.7497 124.145C53.1424 124.145 53.4618 124.464 53.4618 124.857Z" fill="#3D3335"/>
<path d="M53.0942 124.713C53.2283 124.713 53.3369 124.604 53.3369 124.47C53.3369 124.336 53.2283 124.228 53.0942 124.228C52.9602 124.228 52.8516 124.336 52.8516 124.47C52.8516 124.604 52.9602 124.713 53.0942 124.713Z" fill="white"/>
<path d="M59.4423 124.94C59.8356 124.94 60.1544 124.621 60.1544 124.228C60.1544 123.834 59.8356 123.516 59.4423 123.516C59.049 123.516 58.7302 123.834 58.7302 124.228C58.7302 124.621 59.049 124.94 59.4423 124.94Z" fill="#3D3335"/>
<path d="M60.0265 123.841C60.0265 123.975 59.9179 124.084 59.7838 124.084C59.6497 124.084 59.5411 123.975 59.5411 123.841C59.5411 123.707 59.6497 123.599 59.7838 123.599C59.9179 123.599 60.0265 123.707 60.0265 123.841Z" fill="white"/>
<path d="M52.8776 128.883C52.8776 128.883 53.4523 130.665 55.5726 130.512" stroke="#3D3335" stroke-width="0.9376" stroke-miterlimit="10" stroke-linecap="round" stroke-linejoin="round"/>
<path d="M56.4054 137.786C56.4054 137.786 50.4693 133.271 45.3634 136.094C40.2575 138.916 29.225 178.786 29.6337 182.433C30.0425 186.083 37.077 189.327 46.2287 178.608C50.4788 173.633 54.2149 176.063 55.2207 171.809C56.051 168.303 61.1537 143.25 56.4054 137.786Z" fill="#798DBE"/>
<path d="M45.9828 142.544C47.6337 138.686 49.8977 136.665 52.0403 135.627C50.0414 135.03 47.6209 134.842 45.3634 136.09C40.2575 138.913 29.225 178.783 29.6337 182.43C29.9115 184.917 33.274 187.213 38.2873 185.026C36.7737 173.99 42.3554 151.015 45.9828 142.544Z" fill="#5473AF"/>
<path d="M97.5021 158.545C97.5021 158.545 99.8139 161.566 100.421 161.24C101.027 160.914 100.583 157.98 99.4627 157.718C98.3419 157.456 97.5021 158.545 97.5021 158.545Z" fill="#CE7345"/>
<path d="M83.7362 157.606L91.138 158.168C91.138 158.168 97.2977 155.601 99.9225 156.594C102.544 157.59 103.33 160.854 102.701 161.25C102.071 161.645 100.363 158.65 99.4658 158.759C98.5686 158.867 97.4701 161.326 95.0848 161.706C92.6995 162.086 91.138 162.07 91.138 162.07L83.7362 162.335V157.606Z" fill="#E1986E"/>
<path d="M53.8603 136.528C53.8603 136.528 47.739 137.805 48.8119 143.447C49.888 149.09 65.7166 163.558 67.31 163.775C68.9034 163.996 85.6197 163.775 85.6197 163.775L85.4569 156.092L69.162 155.607C69.162 155.61 57.5037 137.147 53.8603 136.528Z" fill="#798DBE"/>
<path d="M68.0382 161.265C65.8222 161.141 56.348 151.919 53.324 144.616C51.9031 141.187 51.9063 138.721 52.3086 137.071C50.5747 137.869 48.0968 139.689 48.8153 143.447C49.8914 149.09 65.72 163.558 67.3134 163.775C68.9068 163.995 85.6231 163.775 85.6231 163.775L85.5497 160.378C80.9834 160.671 69.7945 161.364 68.0382 161.265Z" fill="#5473AF"/>
<path d="M24.8887 162.07C24.8887 162.07 26.6833 165.545 22.5865 171.177C18.4864 176.81 13.7349 195.81 30.1543 195.784" stroke="#03214F" stroke-width="7.5008" stroke-miterlimit="10" stroke-linecap="round" stroke-linejoin="round"/>
<path d="M64.6886 199.501H33.8744C31.8275 199.501 30.1543 197.828 30.1543 195.781C30.1543 193.734 31.8275 192.061 33.8744 192.061H64.6886C66.7354 192.061 68.4086 193.734 68.4086 195.781C68.4086 197.828 66.7354 199.501 64.6886 199.501Z" fill="#16397F"/>
<path d="M38.2716 196.767L28.0215 229.497" stroke="#03214F" stroke-width="7.5008" stroke-miterlimit="10" stroke-linecap="round" stroke-linejoin="round"/>
<path d="M60.5184 196.767L70.7686 229.497" stroke="#03214F" stroke-width="7.5008" stroke-miterlimit="10" stroke-linecap="round" stroke-linejoin="round"/>
<path d="M25.8471 165.257C23.7715 165.257 22.0696 163.558 22.0696 161.48V142.653C22.0696 140.577 23.7684 138.875 25.8471 138.875C27.9227 138.875 29.6247 140.574 29.6247 142.653V161.48C29.6215 163.558 27.9227 165.257 25.8471 165.257Z" fill="#16397F"/>
<path d="M97.1185 229.497H94.0498L107.257 201.011H110.325L97.1185 229.497Z" fill="#798DBE"/>
<path d="M125.493 229.497H120.324L90.4481 168.456H95.6179L125.493 229.497Z" fill="#798DBE"/>
<path d="M131.123 165.972H72.8057V169.909H131.123V165.972Z" fill="#798DBE"/>
<path d="M109.943 165.972H107.522L113.605 138.948H116.026L109.943 165.972Z" fill="#03214F"/>
<path d="M109.943 162.68H83.7363V165.972H109.943V162.68Z" fill="#03214F"/>
<path d="M145.02 97.718C151.89 97.718 157.46 92.1481 157.46 85.2773C157.46 78.4065 151.89 72.8367 145.02 72.8367C138.149 72.8367 132.579 78.4065 132.579 85.2773C132.579 92.1481 138.149 97.718 145.02 97.718Z" fill="#0961F5"/>
<path d="M152.29 92.5475C156.305 88.5322 156.305 82.022 152.29 78.0067C148.274 73.9913 141.764 73.9913 137.749 78.0067C133.733 82.022 133.733 88.5322 137.749 92.5475C141.764 96.5629 148.274 96.5629 152.29 92.5475Z" fill="#0961F5"/>
<path d="M150.493 83.8211L143.564 79.82C142.443 79.175 141.044 79.9829 141.044 81.2729V89.2751C141.044 90.5683 142.443 91.3762 143.564 90.728L150.493 86.7269C151.614 86.0851 151.614 84.4693 150.493 83.8211Z" fill="white"/>
<path d="M175.026 178.193H177.446L171.363 151.166H168.943L175.026 178.193Z" fill="#03214F"/>
<path d="M175.025 178.191H201.231V174.899H175.025V178.191Z" fill="#03214F"/>
<path d="M212.095 244.349C251.255 244.349 283 242.187 283 239.521C283 236.854 251.255 234.693 212.095 234.693C172.936 234.693 141.191 236.854 141.191 239.521C141.191 242.187 172.936 244.349 212.095 244.349Z" fill="#A1C1DE"/>
<path d="M208.621 200.765C208.621 200.765 194.102 232.061 191.314 232.406C188.527 232.751 185.602 230.2 185.567 228.788C185.531 227.374 197.899 194.874 197.899 194.874L208.621 200.765Z" fill="#CE7345"/>
<path d="M194.035 229.571C194.035 229.571 191.781 231.684 185.535 229.242C185.535 229.242 177.488 233.987 174.761 234.009C173.503 234.019 172.941 234.689 172.698 235.411C172.404 236.289 173.03 237.209 173.953 237.295C178.577 237.726 193.246 239.019 194.08 238.084C195.073 236.969 195.134 229.989 194.035 229.571Z" fill="#16397F"/>
<path d="M186.03 221.051C186.03 221.051 196.81 226.863 198.017 225.956C199.224 225.049 211.358 200.417 210.464 198.153C209.57 195.889 197.311 192.68 197.311 192.68L186.03 221.051Z" fill="#261E20"/>
<path d="M210.422 187.51C210.422 187.51 203.253 189.155 200.596 190.742C197.94 192.329 197.617 194.599 198.364 196.732C199.112 198.865 212.335 232.129 213.922 233.023C215.509 233.917 220.65 231.541 220.65 231.541C220.65 231.541 212.893 204.891 213.676 203.594C214.458 202.298 218.121 203.08 218.025 201.065C217.929 199.05 210.422 187.51 210.422 187.51Z" fill="#E1986E"/>
<path d="M219.871 228.83C219.871 228.83 219.331 231.63 212.661 230.96C212.661 230.96 206.188 237.698 203.57 238.454C202.363 238.802 201.998 239.601 201.96 240.361C201.912 241.287 202.765 242.002 203.678 241.836C208.244 241.006 222.722 238.298 223.275 237.171C223.926 235.836 221.509 227.773 219.871 228.83Z" fill="#16397F"/>
<path d="M234.087 183.723C234.087 183.723 200.271 186.083 197.307 192.68C194.344 199.277 207.248 224.676 207.248 224.676L220.062 221.051C220.062 221.051 215.24 206.606 216.904 205.478C218.571 204.354 247.185 204.884 250.241 204.488C253.297 204.092 259.421 198.124 256.222 192.032C253.025 185.942 234.087 183.723 234.087 183.723Z" fill="#3D3335"/>
<path d="M230.772 149.815C230.772 149.815 236.708 145.3 241.814 148.122C246.92 150.945 257.953 190.815 257.544 194.462C257.135 198.112 250.101 201.356 240.949 190.636C236.699 185.661 232.963 188.091 231.957 183.838C231.127 180.332 226.024 155.282 230.772 149.815Z" fill="#798DBE"/>
<path d="M257.544 194.462C257.953 190.812 246.92 150.945 241.814 148.122C239.541 146.864 237.104 147.065 235.099 147.672C237.529 149.435 240.179 153.133 242.606 160.317C247.367 174.399 244.819 185.952 242.581 192.421C250.925 200.96 257.161 197.891 257.544 194.462Z" fill="#5473AF"/>
<path d="M237.047 142.965C237.047 142.965 240.154 147.803 239.119 148.86C238.085 149.917 231.401 152.012 231.341 150.185C231.28 148.359 231.341 143.869 231.341 143.869L237.047 142.965Z" fill="#E1986E"/>
<path d="M234.466 150.693C236.379 150.294 238.563 149.429 239.119 148.86C240.154 147.803 237.047 142.966 237.047 142.966L233.716 143.492C234.425 145.063 234.904 147.382 234.466 150.693Z" fill="#C46033"/>
<path d="M239.276 138.591C239.212 138.332 243.896 133.051 242.942 129.822C241.987 126.594 239.011 126.629 238.682 126.635C238.356 126.642 228.294 122.8 225.868 124.949C223.441 127.095 223.77 135.212 226.577 136.167C229.387 137.122 239.276 138.591 239.276 138.591Z" fill="#3D3335"/>
<path d="M226.564 135.123C226.564 135.123 224.281 132.802 223.441 134.903C222.601 137.004 225.456 138.597 226.969 138.37C228.48 138.147 226.564 135.123 226.564 135.123Z" fill="#C46033"/>
<path d="M239.004 135.794C239.004 135.794 242.239 133.587 242.581 135.883C242.922 138.179 239.011 139.153 239.011 139.153L239.004 135.794Z" fill="#C46033"/>
<path d="M225.561 132.846C225.561 132.846 224.239 144.942 233.138 144.61C242.034 144.278 240.259 133.006 240.259 133.006C240.259 133.006 237.893 133.341 236.274 132.109C234.655 130.873 235.31 132.99 234.454 132.536C233.598 132.083 232.286 128.813 232.286 128.813C232.286 128.813 230.539 132.284 230.05 132.109C229.562 131.933 229.571 131.339 229.571 131.339C229.571 131.339 227.857 132.776 225.561 132.846Z" fill="#E1986E"/>
<path d="M240.256 133.006C240.256 133.006 239.63 133.092 238.803 133.012C239.122 137.138 238.704 145.06 230.6 144.303C231.337 144.527 232.174 144.645 233.135 144.607C242.034 144.278 240.256 133.006 240.256 133.006Z" fill="#CE7345"/>
<path d="M231.893 134.408C231.893 134.408 232.017 137.173 230.714 137.4C229.412 137.626 231.73 138.91 231.73 138.91" stroke="#3D3335" stroke-width="0.9376" stroke-miterlimit="10" stroke-linecap="round" stroke-linejoin="round"/>
<path d="M236.657 138.182C236.657 138.182 235.425 140.526 233.844 140.564" stroke="#3D3335" stroke-width="0.9376" stroke-miterlimit="10" stroke-linecap="round" stroke-linejoin="round"/>
<path d="M235.84 135.164C235.84 135.442 235.613 135.669 235.335 135.669C235.058 135.669 234.831 135.442 234.831 135.164C234.831 134.887 235.058 134.66 235.335 134.66C235.613 134.66 235.84 134.887 235.84 135.164Z" fill="#3D3335"/>
<path d="M235.731 134.966C235.731 135.075 235.642 135.164 235.533 135.164C235.425 135.164 235.335 135.075 235.335 134.966C235.335 134.858 235.425 134.768 235.533 134.768C235.642 134.765 235.731 134.855 235.731 134.966Z" fill="white"/>
<path d="M228.291 135.165C228.57 135.165 228.796 134.939 228.796 134.66C228.796 134.381 228.57 134.156 228.291 134.156C228.013 134.156 227.787 134.381 227.787 134.66C227.787 134.939 228.013 135.165 228.291 135.165Z" fill="#3D3335"/>
<path d="M228.489 134.657C228.598 134.657 228.686 134.568 228.686 134.459C228.686 134.35 228.598 134.261 228.489 134.261C228.379 134.261 228.291 134.35 228.291 134.459C228.291 134.568 228.379 134.657 228.489 134.657Z" fill="white"/>
<path d="M189.676 170.577C189.676 170.577 187.364 173.598 186.757 173.272C186.15 172.946 186.594 170.012 187.715 169.75C188.836 169.488 189.676 170.577 189.676 170.577Z" fill="#CE7345"/>
<path d="M203.442 169.638L196.04 170.2C196.04 170.2 189.88 167.633 187.255 168.626C184.634 169.622 183.848 172.886 184.477 173.282C185.106 173.677 186.815 170.682 187.712 170.791C188.609 170.899 189.708 173.358 192.093 173.738C194.475 174.118 196.04 174.102 196.04 174.102L203.442 174.367V169.638Z" fill="#E1986E"/>
<path d="M239.901 147.193C239.901 147.193 242.871 147.761 239.461 156.115C237.35 161.288 226.343 175.97 224.75 176.19C223.156 176.411 202.653 176.443 202.653 176.443L202.816 168.76L219.11 168.274C219.114 168.278 229.287 144.616 239.901 147.193Z" fill="#798DBE"/>
<path d="M239.901 147.193C239.266 147.04 238.633 146.982 238.004 147.005C238.892 148.317 239.084 150.744 237.685 155.074C233.384 168.377 223.769 173.361 220.649 174.364C218.047 175.197 206.481 174.456 202.704 174.188L202.656 176.446C202.656 176.446 223.159 176.414 224.753 176.194C226.346 175.973 237.35 161.291 239.464 156.118C242.874 147.761 239.901 147.193 239.901 147.193Z" fill="#5473AF"/>
<path d="M222.489 211.532H253.303C255.35 211.532 257.023 209.859 257.023 207.812C257.023 205.766 255.35 204.092 253.303 204.092H222.489C220.442 204.092 218.769 205.766 218.769 207.812C218.769 209.859 220.442 211.532 222.489 211.532Z" fill="#16397F"/>
<path d="M262.286 174.099C262.286 174.099 260.488 177.573 264.588 183.206C268.688 188.838 273.439 207.838 257.02 207.812" stroke="#03214F" stroke-width="7.5008" stroke-miterlimit="10" stroke-linecap="round" stroke-linejoin="round"/>
<path d="M248.903 208.799L259.157 241.529" stroke="#03214F" stroke-width="7.5008" stroke-miterlimit="10" stroke-linecap="round" stroke-linejoin="round"/>
<path d="M226.66 208.799L216.409 241.529" stroke="#03214F" stroke-width="7.5008" stroke-miterlimit="10" stroke-linecap="round" stroke-linejoin="round"/>
<path d="M261.331 177.289C263.407 177.289 265.109 175.59 265.109 173.511V154.684C265.109 152.608 263.41 150.906 261.331 150.906C259.256 150.906 257.554 152.605 257.554 154.684V173.511C257.554 175.59 259.256 177.289 261.331 177.289Z" fill="#16397F"/>
<path d="M187.849 241.712H190.918L177.708 213.225H174.639L187.849 241.712Z" fill="#798DBE"/>
<path d="M159.471 241.712H164.644L194.52 180.671H189.347L159.471 241.712Z" fill="#798DBE"/>
<path d="M153.844 182.12H212.161V178.182H153.844V182.12Z" fill="#798DBE"/>
<defs>
<linearGradient id="paint0_linear_47_1448" x1="120.088" y1="33.5695" x2="-1.48087" y2="175.776" gradientUnits="userSpaceOnUse">
<stop stop-color="white"/>
<stop offset="1" stop-color="#A1C1DE"/>
</linearGradient>
<linearGradient id="paint1_linear_47_1448" x1="135.492" y1="46.7378" x2="13.9225" y2="188.945" gradientUnits="userSpaceOnUse">
<stop stop-color="white"/>
<stop offset="1" stop-color="#A1C1DE"/>
</linearGradient>
</defs>
</svg>
