<svg width="290" height="290" viewBox="0 0 290 290" fill="none" xmlns="http://www.w3.org/2000/svg">
<path d="M13.0158 150.338C26.3601 165.445 43.2558 171.318 51.5885 189.68C57.2971 202.268 54.6204 217.164 58.8427 230.325C64.6237 248.365 83.6305 260.479 102.572 260.545C121.513 260.611 139.566 249.877 150.812 234.632C154.495 229.634 157.691 224.011 162.861 220.565C170.26 215.626 179.862 216.263 188.721 215.474C210.569 213.528 231.272 201.262 243.472 183.031C243.472 183.031 275.119 145.688 252.719 92.2652C246.208 76.7375 235.652 62.4791 221.091 54.0148C206.537 45.5505 181.203 45.3532 166.215 53.0217C150.279 61.1769 139.684 79.0591 122.216 82.9854C112.095 85.261 101.638 82.3014 91.4437 80.3679C77.1392 77.6517 62.5651 75.968 48.1226 77.8029C31.1282 79.9535 13.9826 88.477 6.05761 107.635C3.28222 114.343 2.34832 121.709 3.45321 128.885C4.4463 135.323 6.95205 143.478 13.0158 150.338Z" fill="#F5F5FF"/>
<path d="M144.36 39.9998C140.684 35.3895 134.962 32.8706 129.24 31.45C121.342 29.4901 112.851 29.3454 105.189 32.0814C97.5271 34.8239 90.8123 40.664 87.9843 48.2931C85.1562 55.9221 86.7149 65.2545 92.5748 70.8974C95.8566 74.0608 100.474 75.7576 105.005 75.751C107.695 76.0404 110.444 75.7379 112.969 74.7645C118.593 72.6008 122.723 67.6814 128.122 64.9915C133.982 62.0714 141.519 61.6044 145.485 56.3891C149.056 51.6933 148.037 44.6167 144.36 39.9998Z" fill="#F5F5FF"/>
<path d="M38.6982 203.452C38.0865 202.196 37.5143 200.927 37.1461 199.585C35.9557 195.284 36.8172 190.378 34.5088 186.556C31.6084 181.762 24.4661 180.887 19.6058 183.676C14.7456 186.471 11.9636 191.93 10.7798 197.408C10.0498 200.782 9.83934 204.373 10.9903 207.628C12.3319 211.41 15.3901 214.35 18.7245 216.586C22.4338 219.072 26.7613 220.894 31.2204 220.742C33.2066 220.677 35.2059 220.151 36.9751 219.223C38.3693 218.618 39.6058 217.684 40.4542 216.468C41.0724 215.738 41.5919 214.922 41.9734 214.028C43.565 210.312 42.1378 205.405 38.6982 203.452Z" fill="#F5F5FF"/>
<path d="M214.442 203.136H75.1855C73.8767 203.136 72.8113 202.064 72.8113 200.762V111.41C72.8113 110.102 73.8833 109.036 75.1855 109.036H214.442C215.751 109.036 216.816 110.108 216.816 111.41V200.762C216.823 202.064 215.751 203.136 214.442 203.136Z" fill="#0984F5"/>
<path d="M213.258 115.876H76.3761V194.014H213.258V115.876Z" fill="#C8E4FF"/>
<path d="M145.675 112.173C145.675 112.647 145.287 113.035 144.814 113.035C144.34 113.035 143.952 112.647 143.952 112.173C143.952 111.7 144.34 111.312 144.814 111.312C145.287 111.312 145.675 111.7 145.675 112.173Z" fill="#C8E4FF"/>
<path d="M236.204 233.843L218.513 205.688C217.513 204.097 215.77 203.136 213.896 203.136H141.729H137.737H75.7381C73.8637 203.136 72.1143 204.103 71.1212 205.688L53.4297 233.843C52.9299 234.639 52.7523 235.586 52.9101 236.5H236.724C236.882 235.586 236.704 234.639 236.204 233.843Z" fill="#C8E4FF"/>
<path d="M52.9102 236.5C52.943 236.691 52.9825 236.875 53.0483 237.059L53.3245 237.895C53.8441 239.447 55.2909 240.493 56.922 240.493H137.737H141.729H232.706C234.337 240.493 235.79 239.447 236.31 237.895L236.586 237.059C236.645 236.875 236.691 236.685 236.724 236.5H52.9102Z" fill="#0984F5"/>
<path d="M82.3936 217.026L83.2551 215.132H78.9934L78.0792 217.026H82.3936Z" fill="#0984F5"/>
<path d="M89.9041 211.634L90.3251 210.647L90.7131 209.74H86.5895L85.7279 211.634H89.9041Z" fill="#0984F5"/>
<path d="M84.1363 215.132L83.2748 217.026H87.5957L88.4047 215.132H84.1363Z" fill="#0984F5"/>
<path d="M83.6169 214.33L84.4785 212.436H80.2891L79.3815 214.33H83.6169Z" fill="#0984F5"/>
<path d="M170.404 209.74L170.877 211.634H174.547L174.014 209.74H170.404Z" fill="#0984F5"/>
<path d="M104.636 215.132L104.057 217.026H108.418L108.97 215.132H104.636Z" fill="#0984F5"/>
<path d="M99.5393 215.132L98.8619 217.026H103.222L103.801 215.132H99.5393Z" fill="#0984F5"/>
<path d="M94.4226 215.132L93.6663 217.026H98.0069L98.6909 215.132H94.4226Z" fill="#0984F5"/>
<path d="M89.2794 215.132L88.4705 217.026H92.798L93.5609 215.132H89.2794Z" fill="#0984F5"/>
<path d="M174.85 209.74L175.376 211.634H178.802L178.25 209.74H174.85Z" fill="#0984F5"/>
<path d="M119.375 212.436L118.901 214.33H122.347L122.775 212.436H119.375Z" fill="#0984F5"/>
<path d="M156.764 209.74L157.086 211.634H161.065L160.69 209.74H156.764Z" fill="#0984F5"/>
<path d="M118.75 211.634L119.23 209.74H115.613L115.087 211.634H118.75Z" fill="#0984F5"/>
<path d="M114.251 211.634L114.777 209.74H111.384L110.831 211.634H114.251Z" fill="#0984F5"/>
<path d="M122.953 211.634L123.38 209.74H120.052L119.579 211.634H122.953Z" fill="#0984F5"/>
<path d="M179.085 209.74L179.638 211.634H183.919L183.34 209.74H179.085Z" fill="#0984F5"/>
<path d="M101.486 209.74L100.802 211.634H104.873L105.169 210.654L105.452 209.74H101.486Z" fill="#0984F5"/>
<path d="M99.947 211.634L100.631 209.74H96.5797L95.8234 211.634H99.947Z" fill="#0984F5"/>
<path d="M91.5877 209.74L90.7722 211.634H94.9616L95.3562 210.647L95.7179 209.74H91.5877Z" fill="#0984F5"/>
<path d="M166.254 209.74L166.681 211.634H170.055L169.575 209.74H166.254Z" fill="#0984F5"/>
<path d="M161.512 209.74L161.88 211.634H165.859L165.432 209.74H161.512Z" fill="#0984F5"/>
<path d="M109.996 211.634L110.549 209.74H106.287L105.708 211.634H109.996Z" fill="#0984F5"/>
<path d="M115.001 208.937L115.494 207.175H112.134L111.614 208.937H115.001Z" fill="#0984F5"/>
<path d="M110.779 208.937L111.298 207.175H107.069L106.53 208.937H110.779Z" fill="#0984F5"/>
<path d="M152.081 209.74L152.305 211.634H156.277L155.955 209.74H152.081Z" fill="#0984F5"/>
<path d="M128.28 208.937L128.628 207.175H124.774L124.38 208.937H128.28Z" fill="#0984F5"/>
<path d="M123.558 208.937L123.952 207.175H120.703L120.256 208.937H123.558Z" fill="#0984F5"/>
<path d="M119.427 208.937L119.875 207.175H116.33L115.837 208.937H119.427Z" fill="#0984F5"/>
<path d="M198.921 209.74L199.729 211.634H203.906L203.044 209.74H198.921Z" fill="#0984F5"/>
<path d="M91.0553 208.937L91.8116 207.175H87.7538L86.9514 208.937H91.0553Z" fill="#0984F5"/>
<path d="M96.0404 208.937L96.7441 207.175H92.6797L91.9299 208.937H96.0404Z" fill="#0984F5"/>
<path d="M105.695 208.937L106.234 207.175H102.407L101.769 208.937H105.695Z" fill="#0984F5"/>
<path d="M203.926 209.74L204.787 211.634H208.95L208.043 209.74H203.926Z" fill="#0984F5"/>
<path d="M100.92 208.937L101.552 207.175H97.6123L96.902 208.937H100.92Z" fill="#0984F5"/>
<path d="M184.182 209.74L184.761 211.634H188.832L188.148 209.74H184.182Z" fill="#0984F5"/>
<path d="M127.872 215.132L127.497 217.026H131.621L131.943 215.132H127.872Z" fill="#0984F5"/>
<path d="M109.805 215.132L109.253 217.026H112.752L113.278 215.132H109.805Z" fill="#0984F5"/>
<path d="M122.985 215.132L122.565 217.026H126.682L127.057 215.132H122.985Z" fill="#0984F5"/>
<path d="M114.113 215.132L113.581 217.026H117.395L117.869 215.132H114.113Z" fill="#0984F5"/>
<path d="M118.697 215.132L118.224 217.026H121.742L122.163 215.132H118.697Z" fill="#0984F5"/>
<path d="M133.679 209.74L133.357 211.634H137.329L137.546 209.74H133.679Z" fill="#0984F5"/>
<path d="M133.002 208.937L133.304 207.175H129.444L129.095 208.937H133.002Z" fill="#0984F5"/>
<path d="M128.405 212.436L128.03 214.33H132.081L132.403 212.436H128.405Z" fill="#0984F5"/>
<path d="M193.916 209.74L194.672 211.634H198.855L198.046 209.74H193.916Z" fill="#0984F5"/>
<path d="M137.014 214.33L137.231 212.436H133.219L132.897 214.33H137.014Z" fill="#0984F5"/>
<path d="M189.003 209.74L189.68 211.634H193.804L193.048 209.74H189.003Z" fill="#0984F5"/>
<path d="M84.8469 211.634L85.7085 209.74H81.5914L80.6772 211.634H84.8469Z" fill="#0984F5"/>
<path d="M176.047 217.026L175.52 215.132H171.759L172.239 217.026H176.047Z" fill="#0984F5"/>
<path d="M114.863 212.436L114.337 214.33H118.073L118.546 212.436H114.863Z" fill="#0984F5"/>
<path d="M183.097 208.937L182.558 207.175H178.335L178.848 208.937H183.097Z" fill="#0984F5"/>
<path d="M192.725 208.937L192.022 207.175H188.076L188.714 208.937H192.725Z" fill="#0984F5"/>
<path d="M187.859 208.937L187.227 207.175H183.4L183.939 208.937H187.859Z" fill="#0984F5"/>
<path d="M165.248 208.937L164.853 207.175H161.005L161.347 208.937H165.248Z" fill="#0984F5"/>
<path d="M160.532 208.937L160.184 207.175H156.33L156.632 208.937H160.532Z" fill="#0984F5"/>
<path d="M197.704 208.937L196.948 207.175H192.883L193.593 208.937H197.704Z" fill="#0984F5"/>
<path d="M173.791 208.937L173.304 207.175H169.759L170.2 208.937H173.791Z" fill="#0984F5"/>
<path d="M169.371 208.937L168.931 207.175H165.675L166.07 208.937H169.371Z" fill="#0984F5"/>
<path d="M171.41 217.026L170.93 215.132H167.464L167.892 217.026H171.41Z" fill="#0984F5"/>
<path d="M201.163 217.026L200.354 215.132H196.073L196.829 217.026H201.163Z" fill="#0984F5"/>
<path d="M190.772 217.026L190.088 215.132H185.833L186.412 217.026H190.772Z" fill="#0984F5"/>
<path d="M211.548 217.026L210.641 215.132H206.379L207.24 217.026H211.548Z" fill="#0984F5"/>
<path d="M206.359 217.026L205.497 215.132H201.222L202.031 217.026H206.359Z" fill="#0984F5"/>
<path d="M195.968 217.026L195.211 215.132H190.943L191.62 217.026H195.968Z" fill="#0984F5"/>
<path d="M167.069 217.026L166.642 215.132H162.578L162.946 217.026H167.069Z" fill="#0984F5"/>
<path d="M202.676 208.937L201.874 207.175H197.822L198.572 208.937H202.676Z" fill="#0984F5"/>
<path d="M209.845 211.634H213.692L212.62 209.74H208.93L209.845 211.634Z" fill="#0984F5"/>
<path d="M180.381 217.026L179.822 215.132H176.356L176.882 217.026H180.381Z" fill="#0984F5"/>
<path d="M207.654 208.937L206.806 207.175H202.755L203.557 208.937H207.654Z" fill="#0984F5"/>
<path d="M185.57 217.026L184.991 215.132H180.657L181.216 217.026H185.57Z" fill="#0984F5"/>
<path d="M212.166 208.937L211.167 207.175H207.694L208.542 208.937H212.166Z" fill="#0984F5"/>
<path d="M178.013 208.937L177.5 207.175H174.133L174.626 208.937H178.013Z" fill="#0984F5"/>
<path d="M152.121 217.026L151.903 215.132H147.747L147.819 217.026H152.121Z" fill="#0984F5"/>
<path d="M90.4303 212.436L90.0094 213.423L89.6213 214.33H93.8765L94.6394 212.436H90.4303Z" fill="#0984F5"/>
<path d="M156.737 214.33L156.415 212.436H152.397L152.62 214.33H156.737Z" fill="#0984F5"/>
<path d="M88.7466 214.33L89.5622 212.436H85.3596L84.9124 213.429L84.498 214.33H88.7466Z" fill="#0984F5"/>
<path d="M124.202 209.74L123.775 211.634H127.747L128.122 209.74H124.202Z" fill="#0984F5"/>
<path d="M128.937 209.74L128.562 211.634H132.541L132.863 209.74H128.937Z" fill="#0984F5"/>
<path d="M105.465 212.436L104.886 214.33H109.207L109.759 212.436H105.465Z" fill="#0984F5"/>
<path d="M95.501 212.436L94.7446 214.33H98.9801L99.6575 212.436H95.501Z" fill="#0984F5"/>
<path d="M110.595 212.436L110.042 214.33H113.502L114.028 212.436H110.595Z" fill="#0984F5"/>
<path d="M147.635 212.436L147.714 214.33H151.811L151.588 212.436H147.635Z" fill="#0984F5"/>
<path d="M100.512 212.436L99.8285 214.33H104.044L104.623 212.436H100.512Z" fill="#0984F5"/>
<path d="M151.18 208.937L150.976 207.175H147.425L147.497 208.937H151.18Z" fill="#0984F5"/>
<path d="M162.13 217.026L161.755 215.132H157.684L158.007 217.026H162.13Z" fill="#0984F5"/>
<path d="M143.005 207.175L142.939 208.937H146.695L146.622 207.175H143.005Z" fill="#0984F5"/>
<path d="M142.907 209.74L142.828 211.634H146.8L146.728 209.74H142.907Z" fill="#0984F5"/>
<path d="M151.496 211.634L151.279 209.74H147.53L147.602 211.634H151.496Z" fill="#0984F5"/>
<path d="M155.816 208.937L155.514 207.175H151.785L151.989 208.937H155.816Z" fill="#0984F5"/>
<path d="M142.795 212.436L142.722 214.33H146.912L146.833 212.436H142.795Z" fill="#0984F5"/>
<path d="M142.689 215.132L142.61 217.026H147.017L146.945 215.132H142.689Z" fill="#0984F5"/>
<path d="M142.137 208.937L142.203 207.175H138.651L138.447 208.937H142.137Z" fill="#0984F5"/>
<path d="M133.817 208.937H137.638L137.849 207.175H134.113L133.817 208.937Z" fill="#0984F5"/>
<path d="M161.597 214.33L161.223 212.436H157.224L157.546 214.33H161.597Z" fill="#0984F5"/>
<path d="M123.597 212.436L123.17 214.33H127.214L127.589 212.436H123.597Z" fill="#0984F5"/>
<path d="M72.4363 217.829L71.5024 219.486H76.0075L76.8033 217.829H72.4363Z" fill="#0984F5"/>
<path d="M179.591 214.33L179.039 212.436H175.599L176.132 214.33H179.591Z" fill="#0984F5"/>
<path d="M177.105 217.829L177.566 219.486H181.098L180.611 217.829H177.105Z" fill="#0984F5"/>
<path d="M170.732 214.33L170.252 212.436H166.859L167.286 214.33H170.732Z" fill="#0984F5"/>
<path d="M141.808 217.026L141.887 215.132H137.724L137.507 217.026H141.808Z" fill="#0984F5"/>
<path d="M191.91 217.829L192.508 219.486H196.954L196.29 217.829H191.91Z" fill="#0984F5"/>
<path d="M205.129 214.33L204.267 212.436H200.071L200.88 214.33H205.129Z" fill="#0984F5"/>
<path d="M197.151 217.829L197.816 219.486H202.215L201.505 217.829H197.151Z" fill="#0984F5"/>
<path d="M132.758 215.132L132.436 217.026H136.698L136.922 215.132H132.758Z" fill="#0984F5"/>
<path d="M73.9622 215.132L72.8901 217.026H77.1913L78.0989 215.132H73.9622Z" fill="#0984F5"/>
<path d="M153.022 217.829L153.219 219.486H157.612L157.329 217.829H153.022Z" fill="#0984F5"/>
<path d="M88.1286 217.829L87.4183 219.486H91.8116L92.4759 217.829H88.1286Z" fill="#0984F5"/>
<path d="M141.775 217.829H137.415L137.217 219.486H141.709L141.775 217.829Z" fill="#0984F5"/>
<path d="M200.006 214.33L199.197 212.436H194.994L195.751 214.33H200.006Z" fill="#0984F5"/>
<path d="M77.6913 217.829L76.8955 219.486H81.2756L82.032 217.829H77.6913Z" fill="#0984F5"/>
<path d="M162.045 212.436L162.42 214.33H166.464L166.037 212.436H162.045Z" fill="#0984F5"/>
<path d="M181.446 217.829L181.933 219.486H186.326L185.813 217.829H181.446Z" fill="#0984F5"/>
<path d="M163.11 217.829L163.432 219.486H167.622L167.247 217.829H163.11Z" fill="#0984F5"/>
<path d="M184.748 214.33L184.169 212.436H179.874L180.427 214.33H184.748Z" fill="#0984F5"/>
<path d="M189.799 214.33L189.121 212.436H185.004L185.583 214.33H189.799Z" fill="#0984F5"/>
<path d="M158.145 217.829L158.427 219.486H162.617L162.288 217.829H158.145Z" fill="#0984F5"/>
<path d="M186.655 217.829L187.161 219.486H191.653L191.061 217.829H186.655Z" fill="#0984F5"/>
<path d="M77.0138 209.74L75.9418 211.634H79.7892L80.6968 209.74H77.0138Z" fill="#0984F5"/>
<path d="M207.602 217.829L208.358 219.486H212.738L211.936 217.829H207.602Z" fill="#0984F5"/>
<path d="M78.4606 207.175L77.4675 208.937H81.0847L81.9331 207.175H78.4606Z" fill="#0984F5"/>
<path d="M194.889 214.33L194.126 212.436H189.97L190.654 214.33H194.889Z" fill="#0984F5"/>
<path d="M131.2 219.486L131.483 217.829H93.3441L92.6798 219.486H131.2Z" fill="#0984F5"/>
<path d="M168.069 217.829L168.444 219.486H172.028L171.614 217.829H168.069Z" fill="#0984F5"/>
<path d="M138.132 211.634H142.025L142.104 209.74H138.355L138.132 211.634Z" fill="#0984F5"/>
<path d="M215.665 215.132H211.528L213.626 219.486H218.131L215.665 215.132Z" fill="#0984F5"/>
<path d="M211.14 214.33H215.211L214.139 212.436H210.233L211.14 214.33Z" fill="#0984F5"/>
<path d="M210.252 214.33L209.338 212.436H205.149L206.01 214.33H210.252Z" fill="#0984F5"/>
<path d="M136.415 219.486L136.606 217.829H132.298L132.015 219.486H136.415Z" fill="#0984F5"/>
<path d="M142.578 217.829L142.512 219.486H152.41L152.219 217.829H142.578Z" fill="#0984F5"/>
<path d="M202.38 217.829L203.084 219.486H207.477L206.721 217.829H202.38Z" fill="#0984F5"/>
<path d="M175.297 214.33L174.771 212.436H171.081L171.561 214.33H175.297Z" fill="#0984F5"/>
<path d="M172.436 217.829L172.857 219.486H176.731L176.27 217.829H172.436Z" fill="#0984F5"/>
<path d="M75.4882 212.436L74.4161 214.33H78.4872L79.4013 212.436H75.4882Z" fill="#0984F5"/>
<path d="M86.0701 208.937L86.8725 207.175H82.8278L81.9794 208.937H86.0701Z" fill="#0984F5"/>
<path d="M82.9067 217.829L82.157 219.486H86.5437L87.254 217.829H82.9067Z" fill="#0984F5"/>
<path d="M141.913 214.33L141.992 212.436H138.04L137.823 214.33H141.913Z" fill="#0984F5"/>
<path d="M156.875 215.132H152.712L152.929 217.026H157.198L156.875 215.132Z" fill="#0984F5"/>
<path d="M169.944 233.613H119.684C119.467 233.613 119.276 233.514 119.145 233.343C119.02 233.172 118.98 232.955 119.046 232.752L122.242 222.367C122.328 222.084 122.584 221.9 122.88 221.9H166.747C167.043 221.9 167.3 222.091 167.385 222.367L170.581 232.752C170.647 232.955 170.608 233.172 170.483 233.343C170.351 233.514 170.154 233.613 169.944 233.613ZM122.88 222.492C122.847 222.492 122.821 222.512 122.808 222.544L119.612 232.929C119.605 232.955 119.612 232.982 119.625 232.995C119.638 233.008 119.651 233.021 119.684 233.021H169.944C169.976 233.021 169.99 233.008 170.003 232.995C170.009 232.982 170.022 232.962 170.016 232.929L166.82 222.544C166.813 222.518 166.78 222.492 166.754 222.492H122.88Z" fill="#0984F5"/>
<path d="M169.22 127.846L114.627 136.461L167.122 162.722L221.486 154.633L169.22 127.846Z" fill="#013996"/>
<path d="M114.627 136.461V137.711L167.162 165.162L221.486 155.83V154.633L167.122 162.722L114.627 136.461Z" fill="#0961F5"/>
<path d="M134.936 166.004L134.1 171.555C134.1 171.555 156.514 189.556 188.128 180.703L188.615 176.369C160.67 181.045 143.078 171.989 134.936 166.004Z" fill="#0961F5"/>
<path d="M201.493 195.231C198.566 192.91 196.494 189.49 195.508 185.886C195.435 185.616 195.08 185.715 195.034 185.945C194.968 185.859 194.837 185.846 194.725 185.899C194.672 185.715 194.37 185.629 194.258 185.853C192.252 189.74 193.804 194.133 195.146 197.98C195.251 198.283 195.587 198.118 195.481 197.816C194.429 194.804 193.304 191.436 193.942 188.26C193.587 192.272 194.922 196.376 197.369 199.559C197.547 199.789 197.823 199.513 197.645 199.283C195.422 196.395 194.278 192.725 194.396 189.082C194.462 190.516 194.686 191.949 195.146 193.298C195.85 195.369 197.027 197.349 198.198 199.184C198.369 199.453 198.645 199.177 198.474 198.908C197.343 197.145 196.369 195.251 195.666 193.271C195.363 192.423 195.166 191.535 195.041 190.634C195.718 193.554 197.126 196.29 199.151 198.52C199.362 198.756 199.644 198.546 199.427 198.309C197.211 195.869 195.876 192.745 195.324 189.523C196.139 192.541 197.639 195.396 199.625 197.849C199.829 198.099 200.033 197.829 199.829 197.579C197.888 195.185 196.613 192.39 195.81 189.444C196.889 192.482 198.283 195.409 200.756 197.573C200.999 197.783 201.262 197.54 201.019 197.329C199.322 195.843 198.204 193.844 197.29 191.831C198.277 193.587 199.467 195.231 200.848 196.718C201.065 196.954 201.249 196.579 201.032 196.349C199.815 195.04 198.888 193.6 197.987 192.068C198.914 193.311 199.993 194.449 201.223 195.415C201.473 195.606 201.742 195.429 201.493 195.231Z" fill="#F0C64B"/>
<path d="M196.349 153.206C195.212 151.844 193.673 150.95 192.094 150.18C188.957 148.661 185.471 147.997 182.071 147.352C177.264 146.445 172.351 145.603 168.359 142.571C168.201 142.453 168.056 142.512 167.964 142.63C167.957 142.637 167.951 142.643 167.944 142.657C167.944 142.663 167.938 142.663 167.938 142.67C167.839 142.788 167.813 142.959 167.957 143.097C170.884 145.899 174.797 147.28 178.651 148.26C182.545 149.247 186.517 149.917 190.246 151.469C190.364 151.516 190.476 151.568 190.595 151.614C190.614 151.621 190.739 151.68 190.739 151.68C190.93 151.772 191.121 151.871 191.312 151.963C192.009 152.311 192.686 152.666 193.324 153.114C194.087 153.653 194.797 154.311 195.29 155.113C195.83 155.988 196.014 156.974 195.994 157.994C195.974 159.052 195.777 160.111 195.606 161.15C195.429 162.229 195.264 163.314 195.1 164.399C194.758 166.642 194.435 168.878 194.192 171.134C193.659 176.093 193.515 181.15 194.409 186.083C194.475 186.451 195.087 186.366 195.06 185.997C194.712 181.321 195.093 176.632 195.751 171.996C196.08 169.687 196.474 167.392 196.875 165.097C197.257 162.939 197.757 160.769 197.928 158.592C198.092 156.606 197.638 154.738 196.349 153.206Z" fill="#F0C64B"/>
<path d="M194.159 186.438C194.219 186.412 194.271 186.386 194.33 186.359C194.363 186.346 194.363 186.346 194.324 186.359C194.344 186.353 194.357 186.346 194.376 186.339C194.403 186.333 194.429 186.32 194.455 186.313C194.58 186.274 194.705 186.247 194.837 186.228C194.87 186.221 194.896 186.215 194.929 186.215C194.843 186.221 194.942 186.215 194.962 186.215C195.027 186.208 195.087 186.208 195.152 186.208C195.218 186.208 195.277 186.215 195.343 186.221C195.376 186.221 195.402 186.228 195.435 186.234C195.455 186.234 195.468 186.241 195.488 186.241C195.442 186.234 195.442 186.234 195.481 186.241C195.573 186.261 195.652 186.261 195.738 186.215C195.81 186.175 195.876 186.103 195.896 186.024C195.935 185.866 195.863 185.642 195.679 185.609C195.054 185.491 194.422 185.563 193.85 185.846C193.692 185.925 193.627 186.142 193.712 186.293C193.804 186.458 193.995 186.517 194.159 186.438Z" fill="#D8A32B"/>
<path d="M194.094 185.787C194.153 185.761 194.205 185.734 194.265 185.708C194.297 185.695 194.297 185.695 194.258 185.708C194.278 185.702 194.291 185.695 194.311 185.688C194.337 185.682 194.363 185.669 194.39 185.662C194.514 185.623 194.639 185.596 194.771 185.577C194.804 185.57 194.83 185.563 194.863 185.563C194.778 185.57 194.876 185.563 194.896 185.563C194.962 185.557 195.021 185.557 195.087 185.557C195.152 185.557 195.212 185.563 195.277 185.57C195.31 185.57 195.337 185.577 195.369 185.583C195.389 185.583 195.402 185.59 195.422 185.59C195.376 185.583 195.376 185.583 195.415 185.59C195.508 185.609 195.586 185.609 195.672 185.563C195.744 185.524 195.81 185.452 195.83 185.373C195.869 185.215 195.797 184.991 195.613 184.958C194.988 184.84 194.357 184.912 193.784 185.195C193.627 185.274 193.561 185.491 193.646 185.642C193.738 185.813 193.929 185.873 194.094 185.787Z" fill="#D8A32B"/>
<path d="M190.246 163.307L190.522 161.15L167.161 165.162L137.75 149.792L137.119 153.423L166.57 168.247L190.246 163.307Z" fill="#0C0C5B"/>
<path d="M166.57 168.247L137.119 153.416L134.935 165.997C143.084 171.976 160.67 181.032 188.608 176.362L190.246 163.301L166.57 168.247Z" fill="#013996"/>
<path d="M130.871 185.32C132.174 188.832 129.372 193.107 124.617 194.876C119.855 196.645 117.146 194.416 115.238 191.187C112.456 186.471 115.14 183.926 119.895 182.157C124.65 180.394 129.563 181.808 130.871 185.32Z" fill="#FFF6DC"/>
<path d="M83.3544 146.649C83.3544 146.649 95.1597 158.809 104.841 180.637C104.841 180.637 109.431 192.489 112.443 195.448C112.443 195.448 110.003 192.706 113.726 188.319C116.462 185.097 120.447 183.124 124.663 182.979C127.024 182.893 129.484 183.387 130.885 185.373C130.885 185.373 115.133 166.82 104.847 150.812C100.737 144.419 98.7901 139.132 97.9351 135.093C97.9351 135.093 97.159 134.179 95.6135 133.416C89.9312 130.608 83.2426 134.39 82.2495 140.644C82.1574 141.23 82.0982 141.848 82.0851 142.512C82.0851 142.512 82.0062 145.287 83.3544 146.649Z" fill="white"/>
<path d="M112.437 195.448C112.437 195.448 117.606 201.683 129.313 194.199C129.313 194.199 136.56 189.365 132.943 180.947C132.943 180.947 125.432 175.343 119.507 168.247C113.581 161.151 106.255 151.483 100.178 138.698L98.6256 137.757C98.6256 137.757 99.7437 143.821 106.978 154.035C114.213 164.248 127.563 181.354 127.563 181.354L129.602 183.814C130.773 185.228 131.174 187.168 130.529 188.885C129.609 191.331 126.899 194.225 119.349 194.666L114.633 187.346C114.627 187.346 110.049 191.141 112.437 195.448Z" fill="#F4E7BD"/>
<path d="M123.867 172.995C123.867 172.995 110.299 158.849 100.789 136.455C100.789 136.455 99.0728 133.725 97.9811 132.469C97.9877 132.476 106.255 158.027 123.867 172.995Z" fill="white"/>
<path d="M98.9216 168.891C101.776 163.742 107.945 160.341 113.811 160.631C115.903 160.736 115.896 158.138 113.811 158.033C106.847 157.684 99.9476 161.157 96.5671 167.247C96.5671 167.254 97.9022 170.72 98.9216 168.891Z" fill="#F0C64B"/>
<path d="M77.902 178.355H51.2793C47.7476 178.355 44.8604 175.468 44.8604 171.936V158.072C44.8604 154.541 47.7476 151.654 51.2793 151.654H77.902C81.4337 151.654 84.3209 154.541 84.3209 158.072V171.936C84.3209 175.468 81.4337 178.355 77.902 178.355Z" fill="#0961F5"/>
<path d="M60.3555 165.004V160.111L64.5909 162.558L68.8263 165.004L64.5909 167.451L60.3555 169.891V165.004Z" fill="#C8E4FF"/>
<path d="M56.8825 119.467C56.8825 111.312 50.2728 104.708 42.1242 104.708C33.969 104.708 27.366 111.318 27.366 119.467C27.366 125.373 30.8385 130.47 35.85 132.831V137.54H48.3984V132.831C53.4099 130.47 56.8825 125.373 56.8825 119.467Z" fill="white"/>
<path d="M48.7998 139.967H35.4424C34.7716 139.967 34.2257 139.421 34.2257 138.75C34.2257 138.079 34.7716 137.533 35.4424 137.533H48.7998C49.4706 137.533 50.0165 138.079 50.0165 138.75C50.0165 139.421 49.4706 139.967 48.7998 139.967Z" fill="#F0C64B"/>
<path d="M42.1176 146.872C39.4212 146.872 37.2377 144.689 37.2377 141.992V141.183H46.9976V141.992C46.9976 144.689 44.8141 146.872 42.1176 146.872Z" fill="#F0C64B"/>
<path d="M48.7998 142.4H35.4424C34.7716 142.4 34.2257 141.854 34.2257 141.183C34.2257 140.512 34.7716 139.967 35.4424 139.967H48.7998C49.4706 139.967 50.0165 140.512 50.0165 141.183C50.0165 141.854 49.4706 142.4 48.7998 142.4Z" fill="#D8A32B"/>
<path d="M43.4659 137.533H42.7754V117.027C42.7754 116.665 42.486 116.376 42.1243 116.376C41.7625 116.376 41.4732 116.665 41.4732 117.027V137.533H40.7826V117.027C40.7826 116.284 41.3877 115.685 42.1243 115.685C42.8608 115.685 43.4659 116.29 43.4659 117.027V137.533Z" fill="#F0C64B"/>
<path d="M18.9214 114.436L18.5137 116.547L24.6827 117.731C24.7682 117.007 24.8931 116.303 25.0575 115.613L18.9214 114.436Z" fill="#0984F5"/>
<path d="M23.8078 104.702L22.5056 106.418L27.425 110.141C27.8196 109.536 28.2471 108.964 28.7141 108.418L23.8078 104.702Z" fill="#0984F5"/>
<path d="M32.4302 98.1318L30.5098 99.0986L33.2786 104.584C33.8968 104.222 34.5347 103.9 35.199 103.61L32.4302 98.1318Z" fill="#0984F5"/>
<path d="M65.7283 116.547L65.3206 114.436L59.1779 115.613C59.3423 116.303 59.4738 117.014 59.5527 117.731L65.7283 116.547Z" fill="#0984F5"/>
<path d="M61.7359 106.418L60.4337 104.702L55.5275 108.418C55.9878 108.964 56.4219 109.542 56.8165 110.141L61.7359 106.418Z" fill="#0984F5"/>
<path d="M53.7323 99.0986L51.8119 98.1318L49.0497 103.61C49.7139 103.893 50.3519 104.222 50.9701 104.584L53.7323 99.0986Z" fill="#0984F5"/>
<path d="M43.2226 102.229L43.17 95.9878L41.0194 96.0075L41.072 102.229C41.4206 102.209 41.7692 102.196 42.1243 102.196C42.4926 102.19 42.8543 102.209 43.2226 102.229Z" fill="#0984F5"/>
<path d="M260.158 232.206H197.777V244.504H260.158V232.206Z" fill="#F0C64B"/>
<path d="M203.801 232.206H201.289V244.504H203.801V232.206Z" fill="#D8A32B"/>
<path d="M207.576 232.206H205.064V244.504H207.576V232.206Z" fill="#D8A32B"/>
<path d="M252.877 232.206H250.365V244.504H252.877V232.206Z" fill="#D8A32B"/>
<path d="M256.645 232.206H254.133V244.504H256.645V232.206Z" fill="#D8A32B"/>
<path d="M266.162 225.353V223.459C266.162 220.769 263.972 218.579 261.282 218.579H205.682V230.226H261.282C263.972 230.226 266.162 228.036 266.162 225.353Z" fill="white"/>
<path d="M261.282 216.533H205.321V217.559V218.585H261.282C263.972 218.585 266.162 220.775 266.162 223.465V225.359C266.162 228.049 263.972 230.239 261.282 230.239H205.321V231.252V232.278H261.282C265.103 232.278 268.208 229.174 268.208 225.353V223.459C268.214 219.637 265.103 216.533 261.282 216.533Z" fill="#0961F5"/>
<path d="M262.374 221.19H205.689V222.124H262.374V221.19Z" fill="#F5F5FF"/>
<path d="M262.374 223.991H205.689V224.925H262.374V223.991Z" fill="#F5F5FF"/>
<path d="M262.374 226.8H205.689V227.734H262.374V226.8Z" fill="#F5F5FF"/>
<path d="M200.921 210.364V208.661C200.921 206.241 202.894 204.268 205.314 204.268H255.376V214.751H205.314C202.894 214.758 200.921 212.791 200.921 210.364Z" fill="white"/>
<path d="M205.314 202.426H255.705V203.347V204.268H205.314C202.894 204.268 200.921 206.241 200.921 208.661V210.364C200.921 212.784 202.894 214.757 205.314 214.757H255.705V215.678V216.599H205.314C201.874 216.599 199.079 213.804 199.079 210.364V208.661C199.079 205.221 201.874 202.426 205.314 202.426Z" fill="#F0C64B"/>
<path d="M204.332 207.456H255.374V206.614H204.332V207.456Z" fill="#F5F5FF"/>
<path d="M204.332 209.985H255.374V209.144H204.332V209.985Z" fill="#F5F5FF"/>
<path d="M204.332 212.515H255.374V211.673H204.332V212.515Z" fill="#F5F5FF"/>
<path d="M100.336 71.6533C102.691 71.6533 104.605 73.508 104.605 75.7901V76.4215C105.46 78.8351 105.986 81.9788 105.986 85.4251C105.986 88.8713 105.466 92.015 104.605 94.4286V95.06C104.605 97.3421 102.697 99.1968 100.336 99.1968C97.2188 99.1968 94.6868 93.0344 94.6868 85.4316C94.6868 77.8223 97.2188 71.6533 100.336 71.6533Z" fill="#F0C64B"/>
<path d="M96.6073 85.596C96.6073 90.2457 96.969 94.0208 97.4097 94.0208C97.8569 94.0208 98.212 90.2523 98.212 85.596C98.212 80.9462 97.8503 77.1711 97.4097 77.1711C96.969 77.1777 96.6073 80.9462 96.6073 85.596Z" fill="#D8A32B"/>
<path d="M110.576 79.1838V79.7362V91.4626V92.0151C110.287 95.1916 107.367 98.1314 103.454 99.1903V91.4626V79.7362V72.0085C107.367 73.0674 110.287 76.0138 110.576 79.1838Z" fill="#0984F5"/>
<path d="M103.453 100.664C104.091 100.664 104.611 100.157 104.611 99.5389V71.6534C104.611 71.0352 104.091 70.5288 103.453 70.5288C102.815 70.5288 102.296 71.0352 102.296 71.6534V99.5389C102.296 100.157 102.815 100.664 103.453 100.664Z" fill="#0961F5"/>
<path d="M78.1721 71.6533C75.8177 71.6533 73.9038 73.508 73.9038 75.7901V76.4215C73.0488 78.8351 72.5227 81.9788 72.5227 85.4251C72.5227 88.8713 73.0423 92.015 73.9038 94.4286V95.06C73.9038 97.3421 75.8111 99.1968 78.1721 99.1968C81.2895 99.1968 83.8216 93.0344 83.8216 85.4316C83.8216 77.8223 81.2895 71.6533 78.1721 71.6533Z" fill="#F0C64B"/>
<path d="M81.901 85.596C81.901 90.2457 81.5393 94.0208 81.0986 94.0208C80.6514 94.0208 80.2963 90.2523 80.2963 85.596C80.2963 80.9462 80.658 77.1711 81.0986 77.1711C81.5393 77.1777 81.901 80.9462 81.901 85.596Z" fill="#D8A32B"/>
<path d="M67.9321 79.1838V79.7362V91.4626V92.0151C68.2215 95.1916 71.1416 98.1314 75.0548 99.1903V91.4626V79.7362V72.0085C71.1416 73.0674 68.2215 76.0138 67.9321 79.1838Z" fill="#0984F5"/>
<path d="M75.0546 100.664C74.4167 100.664 73.8971 100.157 73.8971 99.5389V71.6534C73.8971 71.0352 74.4167 70.5288 75.0546 70.5288C75.6925 70.5288 76.2121 71.0352 76.2121 71.6534V99.5389C76.2121 100.157 75.6925 100.664 75.0546 100.664Z" fill="#0961F5"/>
<path d="M103.558 54.6854C101.243 52.7716 98.2112 51.5681 95.3305 50.8578C92.3776 50.1343 89.2865 49.9436 86.2678 50.2987C85.3536 50.404 84.446 50.5487 83.5516 50.7394C82.9399 50.8709 82.2625 50.9696 81.6903 51.2392C81.0919 51.522 80.5131 51.8311 79.9212 52.1337C78.323 52.936 76.7315 53.745 75.1333 54.5473C74.4954 54.8696 74.5743 55.7969 75.1333 56.1389C76.6065 57.0334 78.2967 57.1452 79.9672 56.8821C81.1445 56.6979 82.2165 56.2573 83.328 55.8693C85.3273 55.1787 87.4976 54.8367 89.6088 54.8236C91.4963 54.817 93.4036 55.0998 95.1464 55.843C97.7245 56.9544 100.809 57.691 103.367 56.1323C103.841 55.8495 104.032 55.0735 103.558 54.6854Z" fill="#0984F5"/>
<path d="M89.6547 49.2729L89.6612 49.2532C89.5231 49.2532 89.3916 49.2598 89.2601 49.2663C89.1285 49.2663 88.9904 49.2532 88.8589 49.2532L88.8654 49.2729C75.5804 49.6938 64.9326 60.5915 64.9326 73.9818V88.9965C64.9326 90.6605 66.2809 92.0153 67.9514 92.0153V77.2176L67.8856 76.8361C66.8662 70.8381 68.1684 64.5902 71.8316 59.73C73.5416 57.461 75.8566 55.3235 78.9937 53.778C79.0332 53.7583 79.0661 53.7385 79.1055 53.7254C85.4916 50.608 93.0351 50.608 99.4212 53.7254C99.4606 53.7451 99.4935 53.7648 99.533 53.778C102.69 55.3301 105.011 57.4873 106.728 59.7694C110.365 64.6231 111.654 70.8578 110.641 76.8361L110.575 77.2176V92.0153C112.239 92.0153 113.594 90.667 113.594 88.9965V73.9884C113.581 60.5981 102.94 49.7004 89.6547 49.2729Z" fill="#0961F5"/>
<path d="M272.107 103.064H232.864V159.815H272.107V103.064Z" fill="#C8E4FF"/>
<path d="M267.872 111.391H237.099V112.647H267.872V111.391Z" fill="#0984F5"/>
<path d="M267.872 117.152H237.099V118.408H267.872V117.152Z" fill="#0984F5"/>
<path d="M267.872 122.92H237.099V124.176H267.872V122.92Z" fill="#0984F5"/>
<path d="M267.872 128.688H237.099V129.944H267.872V128.688Z" fill="#0984F5"/>
<path d="M267.872 134.455H237.099V135.711H267.872V134.455Z" fill="#0984F5"/>
<path d="M267.872 140.217H237.099V141.473H267.872V140.217Z" fill="#0984F5"/>
<path d="M267.872 154.225H237.099V154.574H267.872V154.225Z" fill="white"/>
<path d="M241.308 148.773C242.88 149.036 244.478 149.115 246.063 148.977C247.53 148.852 249.088 148.602 250.456 148.036C251.43 147.635 252.495 146.53 251.811 145.419C251.206 144.439 249.7 144.34 248.694 144.577C247.523 144.853 246.484 145.623 245.774 146.576C245.063 147.53 244.57 148.911 245.412 149.944C246.188 150.897 247.615 151.088 248.76 150.93C249.404 150.838 250.029 150.628 250.594 150.299C250.858 150.148 251.101 149.963 251.338 149.773C251.64 149.523 251.962 149.187 252.377 149.128C252.87 149.062 252.988 149.431 253.298 149.707C253.515 149.898 253.797 149.957 254.08 149.931C254.429 149.898 254.744 149.746 255.067 149.621C255.474 149.464 255.876 149.404 256.31 149.418C258.184 149.464 260.065 149.714 261.933 149.865C262.268 149.891 262.262 149.582 261.933 149.556C260.545 149.444 259.157 149.122 257.763 149.01C257.132 148.957 256.474 148.859 255.843 148.911C255.244 148.957 254.764 149.273 254.192 149.391C253.547 149.529 253.462 148.878 252.942 148.681C252.482 148.503 251.982 148.655 251.588 148.918C251.107 149.233 250.719 149.654 250.213 149.931C249.641 150.24 248.996 150.424 248.345 150.463C247.293 150.529 245.728 150.207 245.504 148.964C245.3 147.826 246.247 146.655 247.063 145.984C247.905 145.294 249.042 144.84 250.141 145.044C250.667 145.143 251.344 145.386 251.476 145.971C251.627 146.655 251.022 147.208 250.47 147.477C249.832 147.793 249.088 147.951 248.391 148.109C247.622 148.28 246.839 148.405 246.057 148.471C244.518 148.602 242.965 148.681 241.44 148.424C241.117 148.359 240.979 148.72 241.308 148.773Z" fill="#0984F5"/>
<path d="M285.221 137.514L278.322 133.771L280.347 130.036C280.788 129.227 281.801 128.924 282.61 129.365L286.582 131.516C287.391 131.956 287.694 132.969 287.253 133.778L285.221 137.514Z" fill="#C8E4FF"/>
<path d="M284.731 138.38L277.836 134.638L257.91 171.361L264.806 175.103L284.731 138.38Z" fill="#0961F5"/>
<path d="M282.515 137.181L280.052 135.845L260.126 172.567L262.589 173.903L282.515 137.181Z" fill="#013996"/>
<path d="M286.447 137.174L277.909 132.542L277.012 134.195L285.55 138.827L286.447 137.174Z" fill="#F0C64B"/>
<path d="M264.82 175.12L257.921 171.377L257.217 177.632L259.953 179.118L264.82 175.12Z" fill="#C8E4FF"/>
<path d="M259.953 179.118L257.217 177.632L256.763 181.736L259.953 179.118Z" fill="#0961F5"/>
<path d="M38.5204 73.7451L45.5772 80.8086" stroke="#0984F5" stroke-width="2.1457" stroke-miterlimit="10"/>
<path d="M45.7152 73.7451L38.6583 80.8086" stroke="#0984F5" stroke-width="2.1457" stroke-miterlimit="10"/>
<path d="M275.987 179.624L283.044 186.681" stroke="#0984F5" stroke-width="2.1457" stroke-miterlimit="10"/>
<path d="M283.189 179.624L276.125 186.681" stroke="#0984F5" stroke-width="2.1457" stroke-miterlimit="10"/>
<path d="M18.5994 154.883L24.8473 161.137" stroke="#0961F5" stroke-width="1.9001" stroke-miterlimit="10"/>
<path d="M24.979 154.883L18.7245 161.137" stroke="#0961F5" stroke-width="1.9001" stroke-miterlimit="10"/>
<path d="M15.2846 103.064C15.2846 105.886 12.9959 108.174 10.1745 108.174C7.35304 108.174 5.06433 105.886 5.06433 103.064C5.06433 100.243 7.35304 97.9541 10.1745 97.9541C12.9959 97.9541 15.2846 100.243 15.2846 103.064Z" stroke="#0984F5" stroke-width="2.1457" stroke-miterlimit="10"/>
<path d="M215.211 99.1314C218.034 99.1314 220.322 96.8435 220.322 94.0213C220.322 91.199 218.034 88.9111 215.211 88.9111C212.389 88.9111 210.101 91.199 210.101 94.0213C210.101 96.8435 212.389 99.1314 215.211 99.1314Z" stroke="#0984F5" stroke-width="2.1457" stroke-miterlimit="10"/>
<path d="M238.519 86.8985C238.519 87.6153 237.941 88.1941 237.224 88.1941C236.507 88.1941 235.928 87.6153 235.928 86.8985C235.928 86.1816 236.507 85.6028 237.224 85.6028C237.941 85.5963 238.519 86.1816 238.519 86.8985Z" stroke="#0961F5" stroke-width="1.9001" stroke-miterlimit="10"/>
<path d="M113.331 43.6103C113.331 44.3272 112.752 44.9059 112.035 44.9059C111.319 44.9059 110.74 44.3272 110.74 43.6103C110.74 42.8935 111.319 42.3147 112.035 42.3147C112.752 42.3147 113.331 42.8935 113.331 43.6103Z" stroke="#0961F5" stroke-width="1.9001" stroke-miterlimit="10"/>
<path d="M30.4968 208.358V211.43C26.3732 211.66 23.0848 215.08 23.0848 219.263V221.874C23.0848 226.162 26.5376 229.647 30.7994 229.726C32.3515 238.131 39.7109 244.504 48.5632 244.504C58.5467 244.504 66.6362 236.415 66.6362 226.431V208.358H30.4968ZM25.6235 221.874V219.263C25.6235 216.481 27.7741 214.192 30.4968 213.968V226.431C30.4968 226.681 30.5034 226.925 30.5166 227.174C27.7806 226.951 25.6235 224.662 25.6235 221.874Z" fill="#0961F5"/>
<path d="M57.6391 187.786C55.3373 186.602 52.3185 187.161 50.4705 188.97C50.1416 186.333 47.6359 184.34 45.0052 183.945C42.3745 183.551 39.7109 184.472 37.4024 185.793C35.14 187.089 33.0289 188.885 32.0818 191.311C31.1348 193.738 31.6675 196.869 33.8115 198.349C34.6862 198.947 35.7977 199.118 36.8368 198.94C36.9749 199.769 37.3038 200.552 37.8365 201.209C39.6254 203.386 43.3215 203.603 45.3537 201.65C46.8927 203.011 49.2603 203.36 51.1281 202.492C51.5359 202.301 51.9108 202.058 52.2528 201.768C52.1146 203.577 51.4307 205.346 50.2732 206.747C52.5158 205.964 54.4297 204.294 55.5083 202.183C56.212 200.795 56.5474 199.23 56.5013 197.671C58.2442 197.336 59.8489 196.06 60.4145 194.35C61.2366 191.897 59.9344 188.97 57.6391 187.786Z" fill="#C8E4FF"/>
<path d="M138.744 79.3027C138.645 79.2961 138.547 79.2896 138.454 79.2896C136.534 79.2896 134.969 80.8548 134.969 82.7752C134.969 84.6956 136.534 86.2609 138.454 86.2609C138.553 86.2609 138.652 86.2543 138.737 86.2478C140.533 86.1031 141.94 84.5707 141.94 82.7752C141.934 80.9798 140.533 79.454 138.744 79.3027Z" fill="#0961F5"/>
<path d="M150.963 82.7817C150.963 82.1766 150.727 81.611 150.299 81.1835C149.872 80.756 149.306 80.5193 148.701 80.5193H147.412L147.28 80.0852C147.109 79.513 146.879 78.9606 146.596 78.4344L146.379 78.0333L147.294 77.1191C148.175 76.2378 148.175 74.8107 147.294 73.9294C146.866 73.5019 146.3 73.2717 145.695 73.2717C145.09 73.2717 144.525 73.5085 144.097 73.9294L143.183 74.8435L142.782 74.6265C142.256 74.3437 141.703 74.1135 141.131 73.9425L140.697 73.811V72.5219C140.697 71.4499 139.934 70.5226 138.888 70.3122C138.744 70.2793 138.592 70.2661 138.441 70.2661C137.836 70.2661 137.271 70.5029 136.843 70.9304C136.416 71.3579 136.179 71.9235 136.179 72.5285V73.8176L135.745 73.9491C135.173 74.1201 134.62 74.3503 134.094 74.6331L133.693 74.8501L132.779 73.9359C131.897 73.0547 130.47 73.0547 129.589 73.9359C129.161 74.3634 128.931 74.929 128.931 75.5341C128.931 76.1392 129.168 76.7048 129.589 77.1323L130.503 78.0464L130.286 78.4476C130.003 78.9737 129.773 79.5262 129.602 80.0984L129.471 80.5324H128.181C126.938 80.5324 125.926 81.5453 125.926 82.7883C125.926 83.3933 126.162 83.9589 126.59 84.3864C127.017 84.8139 127.583 85.0507 128.188 85.0507H129.477L129.609 85.4847C129.78 86.0569 130.01 86.6094 130.293 87.1355L130.51 87.5367L129.595 88.4509C128.714 89.3321 128.714 90.7593 129.595 91.6406C130.023 92.0681 130.589 92.2983 131.194 92.2983C131.799 92.2983 132.364 92.0615 132.792 91.6406L133.706 90.7264L134.107 90.9434C134.633 91.2262 135.186 91.4564 135.758 91.6274L136.192 91.759V93.048C136.192 94.291 137.205 95.3038 138.448 95.3038C138.592 95.3038 138.744 95.2907 138.888 95.2644L138.954 95.2512C139.369 95.1591 139.743 94.9487 140.039 94.6462C140.467 94.2187 140.704 93.6531 140.704 93.048V91.759L141.138 91.6274C141.71 91.4564 142.262 91.2262 142.788 90.9434L143.19 90.7264L144.104 91.6406C144.531 92.0681 145.097 92.2983 145.702 92.2983C146.307 92.2983 146.873 92.0615 147.3 91.6406C147.728 91.2131 147.958 90.6475 147.958 90.0424C147.958 89.4374 147.721 88.8718 147.3 88.4443L146.386 87.5301L146.603 87.1289C146.886 86.6028 147.116 86.0503 147.287 85.4782L147.419 85.0441H148.708C149.951 85.0375 150.963 84.0247 150.963 82.7817ZM143.117 87.096C142.032 88.2667 140.566 88.9836 138.974 89.1151C138.803 89.1283 138.625 89.1348 138.448 89.1348C134.942 89.1348 132.088 86.2805 132.088 82.7751C132.088 79.2697 134.942 76.4154 138.448 76.4154C138.625 76.4154 138.81 76.422 138.981 76.4351C140.559 76.5666 142.032 77.2835 143.117 78.4542C144.209 79.6314 144.808 81.1638 144.808 82.7751C144.808 84.3864 144.209 85.9188 143.117 87.096Z" fill="#0961F5"/>
<path d="M235.311 181.038C235.284 181.098 235.258 181.157 235.232 181.216C234.778 182.387 235.37 183.709 236.54 184.156C237.711 184.61 239.033 184.018 239.48 182.847C239.507 182.788 239.526 182.729 239.539 182.669C239.868 181.538 239.27 180.328 238.172 179.901C237.08 179.48 235.817 179.98 235.311 181.038Z" fill="#0961F5"/>
<path d="M240.295 174.402C239.927 174.264 239.526 174.271 239.171 174.429C238.809 174.587 238.533 174.876 238.395 175.244L238.092 176.033L237.796 176.014C237.408 175.987 237.02 175.994 236.632 176.04L236.336 176.079L235.994 175.31C235.665 174.567 234.791 174.231 234.048 174.56C233.686 174.718 233.41 175.007 233.271 175.376C233.133 175.744 233.14 176.145 233.298 176.5L233.64 177.27L233.416 177.467C233.12 177.724 232.851 178.006 232.614 178.309L232.43 178.546L231.64 178.243C230.989 177.993 230.246 178.237 229.871 178.829C229.819 178.914 229.773 179 229.74 179.092C229.602 179.46 229.608 179.861 229.766 180.216C229.924 180.578 230.213 180.854 230.582 180.992L231.371 181.295L231.351 181.591C231.325 181.979 231.331 182.367 231.384 182.755L231.423 183.051L230.654 183.393C229.911 183.722 229.575 184.596 229.904 185.34C230.062 185.701 230.351 185.977 230.72 186.116C231.088 186.254 231.489 186.247 231.844 186.089L232.614 185.747L232.811 185.971C233.068 186.267 233.35 186.536 233.653 186.773L233.89 186.957L233.587 187.747C233.298 188.503 233.673 189.358 234.436 189.654C234.804 189.792 235.205 189.785 235.56 189.628C235.922 189.47 236.198 189.18 236.336 188.812L236.639 188.023L236.935 188.043C237.323 188.069 237.711 188.062 238.099 188.01L238.395 187.97L238.737 188.74C239.066 189.483 239.94 189.818 240.683 189.489C241.045 189.332 241.321 189.042 241.46 188.674C241.598 188.306 241.591 187.904 241.433 187.549L241.091 186.78L241.315 186.583C241.611 186.326 241.88 186.043 242.117 185.741L242.301 185.504L243.091 185.806C243.847 186.096 244.702 185.721 244.998 184.958C245.031 184.866 245.057 184.774 245.077 184.682L245.083 184.636C245.123 184.366 245.083 184.083 244.972 183.833C244.814 183.472 244.524 183.195 244.156 183.057L243.367 182.755L243.387 182.459C243.413 182.071 243.406 181.683 243.36 181.295L243.321 180.999L244.09 180.657C244.452 180.499 244.722 180.21 244.866 179.841C245.011 179.473 244.998 179.072 244.84 178.717C244.682 178.355 244.393 178.079 244.025 177.941C243.656 177.803 243.255 177.809 242.9 177.967L242.13 178.309L241.933 178.085C241.677 177.789 241.394 177.52 241.091 177.283L240.855 177.099L241.157 176.31C241.427 175.553 241.052 174.698 240.295 174.402ZM241.085 180.196C241.545 181.13 241.637 182.196 241.341 183.195C241.308 183.301 241.275 183.413 241.229 183.524C240.407 185.662 238 186.727 235.863 185.905C233.725 185.083 232.66 182.676 233.482 180.538C233.521 180.427 233.574 180.321 233.62 180.216C234.067 179.282 234.85 178.559 235.817 178.171C236.79 177.783 237.862 177.776 238.842 178.151C239.829 178.533 240.624 179.256 241.085 180.196Z" fill="#0961F5"/>
</svg>
